<svg viewBox="0 0 330 200" xmlns="http://www.w3.org/2000/svg"><g><g><g><g><g><line x1="51.53200149536133" y1="176.8489990234375" x2="46.53200149536133" y2="176.8489990234375" style="visibility: inherit;" fill="rgb(0, 0, 0)" stroke="rgb(204, 204, 204)" stroke-width="1px"></line><line x1="51.53200149536133" y1="159.16409912109376" x2="46.53200149536133" y2="159.16409912109376" style="visibility: inherit;" fill="rgb(0, 0, 0)" stroke="rgb(204, 204, 204)" stroke-width="1px"></line><line x1="51.53200149536133" y1="141.47919921875" x2="46.53200149536133" y2="141.47919921875" style="visibility: inherit;" fill="rgb(0, 0, 0)" stroke="rgb(204, 204, 204)" stroke-width="1px"></line><line x1="51.53200149536133" y1="123.79429931640624" x2="46.53200149536133" y2="123.79429931640624" style="visibility: inherit;" fill="rgb(0, 0, 0)" stroke="rgb(204, 204, 204)" stroke-width="1px"></line><line x1="51.53200149536133" y1="106.1093994140625" x2="46.53200149536133" y2="106.1093994140625" style="visibility: inherit;" fill="rgb(0, 0, 0)" stroke="rgb(204, 204, 204)" stroke-width="1px"></line><line x1="51.53200149536133" y1="88.42449951171875" x2="46.53200149536133" y2="88.42449951171875" style="visibility: inherit;" fill="rgb(0, 0, 0)" stroke="rgb(204, 204, 204)" stroke-width="1px"></line><line x1="51.53200149536133" y1="70.739599609375" x2="46.53200149536133" y2="70.739599609375" style="visibility: inherit;" fill="rgb(0, 0, 0)" stroke="rgb(204, 204, 204)" stroke-width="1px"></line><line x1="51.53200149536133" y1="53.05469970703126" x2="46.53200149536133" y2="53.05469970703126" style="visibility: inherit;" fill="rgb(0, 0, 0)" stroke="rgb(204, 204, 204)" stroke-width="1px"></line><line x1="51.53200149536133" y1="35.36979980468749" x2="46.53200149536133" y2="35.36979980468749" style="visibility: inherit;" fill="rgb(0, 0, 0)" stroke="rgb(204, 204, 204)" stroke-width="1px"></line><line x1="51.53200149536133" y1="17.684899902343744" x2="46.53200149536133" y2="17.684899902343744" style="visibility: inherit;" fill="rgb(0, 0, 0)" stroke="rgb(204, 204, 204)" stroke-width="1px"></line><line x1="51.53200149536133" y1="0" x2="46.53200149536133" y2="0" style="visibility: inherit;" fill="rgb(0, 0, 0)" stroke="rgb(204, 204, 204)" stroke-width="1px"></line></g><g transform="translate(41.53200149536133, 0)"><text style="text-anchor: end; visibility: hidden; font-family: Roboto, sans-serif; font-size: 12px; font-weight: 200;" x="0" y="176.8489990234375" dx="0em" dy="0.3em" fill="rgb(255, 255, 255)" stroke="none" stroke-width="1px">-0.5</text><text style="text-anchor: end; visibility: inherit; font-family: Roboto, sans-serif; font-size: 12px; font-weight: 200;" x="0" y="159.16409912109376" dx="0em" dy="0.3em" fill="rgb(255, 255, 255)" stroke="none" stroke-width="1px">0</text><text style="text-anchor: end; visibility: hidden; font-family: Roboto, sans-serif; font-size: 12px; font-weight: 200;" x="0" y="141.47919921875" dx="0em" dy="0.3em" fill="rgb(255, 255, 255)" stroke="none" stroke-width="1px">0.5</text><text style="text-anchor: end; visibility: inherit; font-family: Roboto, sans-serif; font-size: 12px; font-weight: 200;" x="0" y="123.79429931640624" dx="0em" dy="0.3em" fill="rgb(255, 255, 255)" stroke="none" stroke-width="1px">1</text><text style="text-anchor: end; visibility: hidden; font-family: Roboto, sans-serif; font-size: 12px; font-weight: 200;" x="0" y="106.1093994140625" dx="0em" dy="0.3em" fill="rgb(255, 255, 255)" stroke="none" stroke-width="1px">1.5</text><text style="text-anchor: end; visibility: inherit; font-family: Roboto, sans-serif; font-size: 12px; font-weight: 200;" x="0" y="88.42449951171875" dx="0em" dy="0.3em" fill="rgb(255, 255, 255)" stroke="none" stroke-width="1px">2</text><text style="text-anchor: end; visibility: hidden; font-family: Roboto, sans-serif; font-size: 12px; font-weight: 200;" x="0" y="70.739599609375" dx="0em" dy="0.3em" fill="rgb(255, 255, 255)" stroke="none" stroke-width="1px">2.5</text><text style="text-anchor: end; visibility: inherit; font-family: Roboto, sans-serif; font-size: 12px; font-weight: 200;" x="0" y="53.05469970703126" dx="0em" dy="0.3em" fill="rgb(255, 255, 255)" stroke="none" stroke-width="1px">3</text><text style="text-anchor: end; visibility: hidden; font-family: Roboto, sans-serif; font-size: 12px; font-weight: 200;" x="0" y="35.36979980468749" dx="0em" dy="0.3em" fill="rgb(255, 255, 255)" stroke="none" stroke-width="1px">3.5</text><text style="text-anchor: end; visibility: inherit; font-family: Roboto, sans-serif; font-size: 12px; font-weight: 200;" x="0" y="17.684899902343744" dx="0em" dy="0.3em" fill="rgb(255, 255, 255)" stroke="none" stroke-width="1px">4</text><text style="text-anchor: end; visibility: hidden; font-family: Roboto, sans-serif; font-size: 12px; font-weight: 200;" x="0" y="0" dx="0em" dy="0.3em" fill="rgb(255, 255, 255)" stroke="none" stroke-width="1px">4.5</text></g><line x1="51.53200149536133" y1="0" x2="51.53200149536133" y2="176.8489990234375" fill="rgb(0, 0, 0)" stroke="rgb(204, 204, 204)" stroke-width="1px"></line></g></g><g transform="translate(51, 0)" clip-path="url(#clip_0)"><clipPath id="clip_0"><rect width="278" height="176"></rect></clipPath><g><g><g><line x1="0" y1="0" x2="0" y2="176.8489990234375" fill="rgb(0, 0, 0)" stroke="rgb(189, 189, 189)" stroke-width="1px" opacity="0.25"></line><line x1="18.564533233642578" y1="0" x2="18.564533233642578" y2="176.8489990234375" fill="rgb(0, 0, 0)" stroke="rgb(189, 189, 189)" stroke-width="1px" opacity="0.25"></line><line x1="37.129066467285156" y1="0" x2="37.129066467285156" y2="176.8489990234375" fill="rgb(0, 0, 0)" stroke="rgb(189, 189, 189)" stroke-width="1px" opacity="0.25"></line><line x1="55.693599700927734" y1="0" x2="55.693599700927734" y2="176.8489990234375" fill="rgb(0, 0, 0)" stroke="rgb(189, 189, 189)" stroke-width="1px" opacity="0.25"></line><line x1="74.25813293457031" y1="0" x2="74.25813293457031" y2="176.8489990234375" fill="rgb(0, 0, 0)" stroke="rgb(189, 189, 189)" stroke-width="1px" opacity="0.25"></line><line x1="92.82266616821289" y1="0" x2="92.82266616821289" y2="176.8489990234375" fill="rgb(0, 0, 0)" stroke="rgb(189, 189, 189)" stroke-width="1px" opacity="0.25"></line><line x1="111.38719940185547" y1="0" x2="111.38719940185547" y2="176.8489990234375" fill="rgb(0, 0, 0)" stroke="rgb(189, 189, 189)" stroke-width="1px" opacity="0.25"></line><line x1="129.95173263549805" y1="0" x2="129.95173263549805" y2="176.8489990234375" fill="rgb(0, 0, 0)" stroke="rgb(189, 189, 189)" stroke-width="1px" opacity="0.25"></line><line x1="148.51626586914062" y1="0" x2="148.51626586914062" y2="176.8489990234375" fill="rgb(0, 0, 0)" stroke="rgb(189, 189, 189)" stroke-width="1px" opacity="0.25"></line><line x1="167.0807991027832" y1="0" x2="167.0807991027832" y2="176.8489990234375" fill="rgb(0, 0, 0)" stroke="rgb(189, 189, 189)" stroke-width="1px" opacity="0.25"></line><line x1="185.64533233642578" y1="0" x2="185.64533233642578" y2="176.8489990234375" fill="rgb(0, 0, 0)" stroke="rgb(189, 189, 189)" stroke-width="1px" opacity="0.25"></line><line x1="204.20986557006833" y1="0" x2="204.20986557006833" y2="176.8489990234375" fill="rgb(0, 0, 0)" stroke="rgb(189, 189, 189)" stroke-width="1px" opacity="0.25"></line><line x1="222.77439880371094" y1="0" x2="222.77439880371094" y2="176.8489990234375" fill="rgb(0, 0, 0)" stroke="rgb(189, 189, 189)" stroke-width="1px" opacity="0.25"></line><line x1="241.33893203735352" y1="0" x2="241.33893203735352" y2="176.8489990234375" fill="rgb(0, 0, 0)" stroke="rgb(189, 189, 189)" stroke-width="1px" opacity="0.25"></line><line x1="259.9034652709961" y1="0" x2="259.9034652709961" y2="176.8489990234375" fill="rgb(0, 0, 0)" stroke="rgb(189, 189, 189)" stroke-width="1px" opacity="0.25"></line><line x1="278.4679985046387" y1="0" x2="278.4679985046387" y2="176.8489990234375" fill="rgb(0, 0, 0)" stroke="rgb(189, 189, 189)" stroke-width="1px" opacity="0.25"></line></g><g><line x1="0" y1="176.8489990234375" x2="278.4679985046387" y2="176.8489990234375" fill="rgb(0, 0, 0)" stroke="rgb(189, 189, 189)" stroke-width="1px" opacity="0.25"></line><line x1="0" y1="159.16409912109376" x2="278.4679985046387" y2="159.16409912109376" fill="rgb(0, 0, 0)" stroke="rgb(189, 189, 189)" stroke-width="1px" opacity="0.25"></line><line x1="0" y1="141.47919921875" x2="278.4679985046387" y2="141.47919921875" fill="rgb(0, 0, 0)" stroke="rgb(189, 189, 189)" stroke-width="1px" opacity="0.25"></line><line x1="0" y1="123.79429931640624" x2="278.4679985046387" y2="123.79429931640624" fill="rgb(0, 0, 0)" stroke="rgb(189, 189, 189)" stroke-width="1px" opacity="0.25"></line><line x1="0" y1="106.1093994140625" x2="278.4679985046387" y2="106.1093994140625" fill="rgb(0, 0, 0)" stroke="rgb(189, 189, 189)" stroke-width="1px" opacity="0.25"></line><line x1="0" y1="88.42449951171875" x2="278.4679985046387" y2="88.42449951171875" fill="rgb(0, 0, 0)" stroke="rgb(189, 189, 189)" stroke-width="1px" opacity="0.25"></line><line x1="0" y1="70.739599609375" x2="278.4679985046387" y2="70.739599609375" fill="rgb(0, 0, 0)" stroke="rgb(189, 189, 189)" stroke-width="1px" opacity="0.25"></line><line x1="0" y1="53.05469970703126" x2="278.4679985046387" y2="53.05469970703126" fill="rgb(0, 0, 0)" stroke="rgb(189, 189, 189)" stroke-width="1px" opacity="0.25"></line><line x1="0" y1="35.36979980468749" x2="278.4679985046387" y2="35.36979980468749" fill="rgb(0, 0, 0)" stroke="rgb(189, 189, 189)" stroke-width="1px" opacity="0.25"></line><line x1="0" y1="17.684899902343744" x2="278.4679985046387" y2="17.684899902343744" fill="rgb(0, 0, 0)" stroke="rgb(189, 189, 189)" stroke-width="1px" opacity="0.25"></line><line x1="0" y1="0" x2="278.4679985046387" y2="0" fill="rgb(0, 0, 0)" stroke="rgb(189, 189, 189)" stroke-width="1px" opacity="0.25"></line></g></g></g><g><g><line x1="0" y1="159.16409912109376" x2="278.4679985046387" y2="159.16409912109376" fill="rgb(0, 0, 0)" stroke="rgb(153, 153, 153)" stroke-width="1.5px"></line></g></g><g><g><line x1="18.564533233642578" y1="0" x2="18.564533233642578" y2="176.8489990234375" fill="rgb(0, 0, 0)" stroke="rgb(153, 153, 153)" stroke-width="1.5px"></line></g></g><g><g><g><g><g><path style="fill: none;" stroke="rgb(204, 51, 17)" stroke-width="2px" d="M18.731614032745362,13.122408369462933L19.000799764633175,15.100199201313076L19.140033763885498,16.75749306297549L19.14931603050232,17.56354762938664L19.390654962539674,19.5976776328229L19.520606695175168,21.475603313604626L19.557735761642455,22.79036450965195L19.752663360595704,25.049458418077084L20.08682495880127,29.57820532345808L20.16108309173584,33.054169862430356L20.829406288146973,41.25378794021961L20.968640287399293,47.28909119745659L21.182132419586182,52.588714952475264L21.52557628440857,58.38657187772529L22.147488147735594,66.40141066620974L22.296004413604734,72.24828515715852L22.416673879623414,76.5911235978159L22.62088374519348,80.5826632328412L22.880787210464476,84.65456703789275L22.973609876632693,87.67576778127605L23.029303476333617,89.83025434379323L23.298489208221437,92.7226931492739L23.511981340408326,95.66791192051224L23.55839267349243,97.69129608645142L23.576957206726075,99.0071588156856L23.725473472595215,100.59761093054637L24.096764137268067,103.44573802848896L24.47733706855774,106.94067075391003L24.533030668258668,109.2886403511711L24.542312934875486,110.73899029519093L24.672264667510987,112.1818491509522L24.83006319999695,113.71195572058927L25.656184928894042,118.8702115681311L25.758289861679078,122.53913706310728L26.027475593566894,125.93272235253355L26.519435724258425,129.08624288958302L26.602976123809814,131.07705794629325L26.788621456146238,132.43973108353453L27.30842838668823,133.53279716044398L27.98603384971619,134.39365967864757L28.08813878250122,134.93357488404482L28.190243715286254,135.27941307117428L28.366606781005856,135.52149222131033L28.505840780258175,135.75851659310905L28.87713144493103,136.07267383337634L29.00708317756653,136.31222720038843L29.07205904388428,136.47993962346305L29.257704376220705,136.64436977384852L29.36909157562256,136.77900226315984L29.480478775024412,136.89404260732942L29.554736907958983,136.98433775247204L29.870333972930908,137.1183070011968L30.18593103790283,137.27006981998346L30.204495571136476,137.36544258392527L30.325165037155152,137.45062693498505L30.362294103622435,137.51006410953406L31.049181833267212,137.680853880482L31.336932098388672,137.83747655022017L31.717505029678346,138.00404659060413L32.08879569435119,138.16652217235722L32.09807796096802,138.26542423473435L32.43223955917358,138.37410251371443L32.58075582504273,138.46205616279107L32.60860262489319,138.51912655927225L32.933481956481934,138.60339227005213L32.9613287563324,138.65816726194458L33.0912804889679,138.71074312450014L33.37903075408936,138.7875509462135L33.666781019210816,138.8783025865123L33.74103915214539,138.94406703853224L34.06591848373413,139.0366153550466L34.20515248298645,139.1167757613355L34.36295101547241,139.19472755187616L34.381515548706055,139.2461737801741L34.44649141502381,139.29142368724996L35.059121011734014,139.4533410164105L35.7088796749115,139.72875358447226L35.829549140930176,139.92831425936092L36.19155753898621,140.14967033052395L36.28438020515442,140.30814419332637L36.57213047027588,140.4818274289832L36.75777580261231,140.63564173224304L36.76705806922913,140.73039354016515L36.93413886833191,140.8312807974467L37.77882513046264,141.12991754622652L37.86236553001404,141.33386087726288L37.95518819618225,141.48257268404495L38.05729312896728,141.60054133970135L39.06906019020081,141.94089609388536L40.09010951805114,142.4000882517309L40.461400182724006,142.76644607201482L41.17613471221924,143.16008010489682L41.22254604530334,143.40733450045215L41.34321551132202,143.58396153128785L41.41747364425659,143.70733886852005L41.44532044410706,143.78784420447744L41.63096577644348,143.8790502079199L41.798046575546266,143.9718365962995L41.927998308181756,144.05686222345855L42.04866777420044,144.1469270257054L42.48493430519104,144.39874288203416L42.49421657180787,144.55321353397295L42.689144170761104,144.71462127884408L42.949047636032105,144.90005056448115L43.02330576896667,145.0371707435859L43.097563901901246,145.1450541608124L43.47813683319092,145.33931144332314L43.56167723274231,145.48459347026804L43.70091123199463,145.61804156675413L43.78445163154602,145.72458651983504L43.99794376373291,145.85392516978922L44.11861322975159,145.9673619307928L44.12789549636841,146.0381612799271L44.13717776298523,146.08336848419972L44.25784722900391,146.14465836651024L44.41564576148987,146.22593901963643L44.66626696014404,146.34607097214752L44.963299491882324,146.50321914078927L45.12109802436829,146.6424983877928L46.05860695266723,146.9876468724415L46.16071188545227,147.22029541116726L47.18176121330261,147.58936974613627L47.19104347991943,147.8127804584974L47.37668881225586,147.98529782059097L47.38597107887268,148.09070688668754L47.525205078125,148.18283894239215L47.757261743545534,148.28621179844123L48.25850414085389,148.45322957018814L48.425584939956664,148.58897570417184L48.64835933876037,148.71578561762848L48.87113373756409,148.83436495428512L48.89898053741455,148.9110495441922L49.71581999969482,149.11382300070858L50.161368797302245,149.31862453492516L50.690457994461056,149.54500100191837L50.89466786003113,149.7173118882905L50.968925992965694,149.83414792060503L51.05246639251708,149.91921568269666L51.29380532455444,150.01335098841582L51.6650959892273,150.13561868868692L51.69294278907776,150.21362979683212L51.98069305419922,150.30805215441873L52.12920932006836,150.38861176305352L52.48193545150757,150.4931632189516L52.50978225135803,150.56045350604498L52.54691131782532,150.60687822479449L52.61188718414307,150.6405274557088L52.63973398399353,150.66918839180957L52.816097049713136,150.71456721844234L53.02030691528321,150.77306740697594L53.475137979507444,150.8741625383462L53.670065578460694,150.96166991863035L54.28269517517089,151.0922666632701L54.301259708404544,151.17360486772753L54.78393757247925,151.27595344030598L54.90460703849792,151.35028313587208L54.96030063819885,151.39961956413632L55.07168783760071,151.44290957031885L55.4615430355072,151.50849378233772L55.80498690032959,151.57912015358912L55.90709183311463,151.63112035085285L56.129866231918335,151.68179585020494L56.473310096740725,151.7411902245944L56.705366762161255,151.79553400055562L56.816753961563116,151.836237035771L56.844600761413574,151.863791648569L57.048810626983645,151.89616504211637L57.37368995857239,151.9412461360429L57.475794891357424,151.97713934212152L57.80067422294617,152.0239092069531L58.07914222145081,152.07320580337858L58.64536048507691,152.14633061953177L58.73818315124512,152.19712084114286L59.9077487449646,152.31839048672902L60.65961234092712,152.44820133797873L60.69674140739441,152.53221197155398L60.92879807281494,152.59788470270192L61.374346870422364,152.67202037564726L61.71779073524475,152.73936399070163L62.098363666534425,152.80597492902328L62.11692819976807,152.8469991781402L62.17262179946899,152.87498938442064L62.25616219902039,152.89773517989823L62.46965433120727,152.9249675043955L62.905920862197874,152.9716308888685L63.41644552612305,153.0340535776142L63.444292325973514,153.0729917883671L63.45357459259033,153.09728907098815L63.5278327255249,153.11712846452403L63.88055885696411,153.15127239164852L64.14046232223511,153.18153364822697L64.31682538795471,153.21824049227726L64.50247072029114,153.25150174955053L64.7902209854126,153.28951991224864L65.7091653804779,153.36872232482781L65.7927057800293,153.420978588532L65.81127031326294,153.45253979406286L66.20112551116944,153.4926239152477L66.23825457763672,153.5205794148819L66.37748857688904,153.5470306375659L66.41461764335632,153.56492904212317L66.7116501750946,153.5912114539123L66.83231964111327,153.61554421624783L67.06437630653382,153.6450878802063L67.18504577255248,153.66774158461598L67.32427977180481,153.69209450392106L67.4078201713562,153.71211885936034L67.43566697120667,153.72529003353205L67.71413496971131,153.75099441559294L67.93690936851502,153.78072268710855L67.96475616836547,153.80017348045024L68.33604683303834,153.83538332298062L68.4103049659729,153.85799488010647L68.716619764328,153.89118097491274L69.1064749622345,153.93615032709695L69.1900153617859,153.96830420696747L69.23642669487,153.9908364233397L69.70054002571106,154.0321420973578L71.16713815116883,154.14869352905626L71.75192094802856,154.25391762633072L72.01182441329956,154.3326492129612L72.22531654548645,154.39176979385334L72.69871214294433,154.45581294942318L73.01430920791626,154.51403804394752L73.13497867393494,154.5572136498377L73.84971320343017,154.62924336231185L74.08176986885071,154.68677073225348L74.23028613471985,154.73030415505724L74.34167333412171,154.7632175810368L74.75009306526185,154.80678697548217L75.28846452903747,154.86210110070633L75.49267439460755,154.91159938258818L75.53908572769164,154.94697975162856L75.57621479415893,154.97354910878147L76.3466429233551,155.07003973007517L76.51372372245788,155.14194522898234L76.84788532066347,155.21249328753348L77.33984545135498,155.29725110560383L77.35840998458862,155.34978761646875L77.58118438339234,155.400622888477L77.59046665000916,155.43229357804685L77.63687798309326,155.45498777384176L77.68328931617737,155.47244417472749L78.64864504432677,155.54351740069785L79.15916970825195,155.6152193493406L79.32625050735473,155.66927876028865L79.37266184043885,155.70604349908643L79.49333130645752,155.73392657312127L79.53974263954163,155.75394363517978L79.68825890541078,155.77119160072007L79.73467023849487,155.78614712278647L79.81821063804627,155.7988819996434L79.96672690391541,155.8142165013137L80.50509836769105,155.84956157155017L80.94136489868164,155.89572595846533L81.03418756484984,155.9272511923358L81.21983289718628,155.9512057843438L81.70251076126098,155.99206485952905L82.07380142593384,156.03357770223732L82.1480595588684,156.06281249729707L82.2315999584198,156.0825953442523L82.38011622428894,156.10364417417895L82.76068915557862,156.1330319047687L82.78853595542908,156.1513580369445L82.89064088821412,156.1670373030409L83.45685915184022,156.1992093587141L83.50327048492431,156.22173751231702L83.52183501815796,156.23761664745646L84.04164194869996,156.26937124326588L84.62642474555969,156.3112911663189L84.65427154541015,156.3391001955072L84.70996514511108,156.35715088615925L85.0626912765503,156.38414774940188L85.19264300918579,156.3952061705447L85.4618287410736,156.4233020056738L85.88881300544739,156.45730047306483L86.08374060440063,156.48502219049965L86.39933766937257,156.5140469299176L86.67780566787721,156.54165652276907L86.81703966712952,156.56296183809644L86.94699139976501,156.580005919111L87.58746779632568,156.60800379254513L87.84737126159668,156.63533204865755L87.88450032806396,156.65362132655235L87.90306486129761,156.6647562763325L88.01445206069945,156.67423082778893L88.23722645950318,156.68858923842265L88.34861365890502,156.701101933011L88.47856539154053,156.71292483325442L88.58067032432557,156.72221184379924L88.67349299049378,156.73187396657121L89.04478365516663,156.74841201436254L89.12832405471802,156.76170312113234L89.14688858795166,156.7699307697166L89.46248565292358,156.7841424039188L89.51817925262452,156.7948024656046L89.66669551849365,156.80578258216153L90.28860738182067,156.83250242251486L90.31645418167113,156.85021340608392L90.5577931137085,156.867410742143L90.91051924514771,156.88863361997457L90.91980151176453,156.90161611478723L91.16114044380187,156.91456027672842L91.31893897628785,156.9279806617376L91.47673750877381,156.94053749298448L91.84802817344665,156.95776358690014L91.90372177314758,156.9692334044864L92.16362523841859,156.98342544092756L92.69271443557739,157.0055572384785L93.24965043258666,157.03006377011212L93.54668296432494,157.05496897372646L93.95510269546509,157.08065887840561L94.15931256103516,157.09916576781958L94.34495789337159,157.11738008417447L94.60486135864258,157.13538876207673L94.8276357574463,157.10028297015856L94.94830522346496,157.13313402796834L95.3938540210724,157.16375757166776L95.52380575370789,157.18506152218208L95.570217086792,157.19879400748752L96.09002401733399,157.2178857968092L96.19212895011901,157.23224270828408L96.32208068275452,157.24368711951308L96.50772601509095,157.2536892458798L96.63767774772644,157.26364092772184L97.38025907707215,157.28624904230026L97.90934827423096,157.3104467978177L97.96504187393188,157.3262026508528L98.04858227348328,157.33750210640545L98.55910693740844,157.35196433992542L98.64264733695984,157.3618280720371L98.93967986869812,157.37336193523956L98.97680893516541,157.3830806309143L99.26455920028687,157.3931312085115L99.3202527999878,157.4002939770381L99.48733359909058,157.40843331353656L99.5430271987915,157.41387469360237L99.8029306640625,157.4184441312007L99.82149519729614,157.4238741232457L100.02570506286622,157.43248648318365L100.04426959609985,157.43801619406455L100.46197159385682,157.4474887123816L100.55479426002502,157.45297479003418L100.85182679176332,157.4618756305379L100.89823812484741,157.469289343001L100.96321399116516,157.47453926788924L101.33450465583802,157.48423698931236L101.37163372230529,157.4913389915662L101.96569878578185,157.5051978986464L102.16062638473511,157.51610622883862L102.41124758338928,157.52769368283094L102.64330424880981,157.53811494196384L103.22808704566955,157.55321261610206L103.51583731079103,157.56567744635836L104.07277330780029,157.576304684188L104.44406397247315,157.59357232680472L104.80607237052918,157.6088070808392L104.91745956993104,157.6195925961809L104.93602410316468,157.62626165495422L105.00099996948242,157.6286510517596L105.14023396873473,157.6350564681688L105.30731476783752,157.63676958833594L105.43726650047302,157.64337982744797L105.5579359664917,157.64962978869096L105.6043472995758,157.65410909873273L105.69716996574402,157.65590465079086L106.3376463623047,157.6678804498395L107.09879222488404,157.68432579524895L107.18233262443543,157.69695517183808L107.35869569015503,157.70545102619758L107.6093168888092,157.71483662646756L108.33333368492127,157.73324902822554L108.3426159515381,157.7443833800048L108.52826128387451,157.75496627732997L108.63964848327636,157.76310424736255L108.71390661621095,157.76921553276375L109.09447954750061,157.7797609004628L109.10376181411743,157.7858846793621L109.27084261322022,157.79370288588336L109.65141554450989,157.80596405539754L109.75352047729493,157.81077262320954L109.8741899433136,157.82038188168107L109.99485940933228,157.82794041186122L110.15265794181823,157.8341453332272L110.40327914047242,157.84205481095637L110.49610180664062,157.84976515996544L110.6167712726593,157.85427578706725L110.90452153778075,157.86546800208032L110.91380380439757,157.87239815711177L110.9230860710144,157.87582296395152L111.01590873718261,157.88055885153125L111.1365782032013,157.88520811660678L111.19227180290221,157.8896315867309L111.32222353553772,157.88706422637884L111.97198219871521,157.90552914103068L112.2226033973694,157.9212997931995L112.51035366249086,157.93727753734905L112.66815219497681,157.95039131513178L113.16011232566834,157.96636568024434L113.31791085815429,157.98181026413184L113.38288672447204,157.9925698866719L113.88412912178039,158.0045875776255L113.98623405456543,158.0180866495524L114.56173458480835,158.0394767400018L114.58958138465881,158.05303435635798L114.59886365127562,158.0615220767534L115.05369471549989,158.077458258081L115.51780804634095,158.0974097249809L115.57350164604186,158.1085723459244L115.58278391265868,158.11643288306936L115.63847751235961,158.12338371750278L116.03761497688294,158.13724558086906L116.1954135093689,158.15033717563995L116.59455097389221,158.16476580355365L116.70593817329406,158.17908643412358L116.91943030548096,158.19136221440624L117.26287417030333,158.20695516088435L117.35569683647155,158.21576914660503L117.3742613697052,158.22222297975642L117.94976189994811,158.24240332077346L118.04258456611633,158.25694407697657L118.10756043243407,158.26679383747702L118.54382696342469,158.2835855331292L119.202867893219,158.30880372968397L120.44669161987305,158.34925513058994L120.88295815086364,158.3847519748461L120.92936948394777,158.4082988239256L121.00362761688233,158.42578200883858L121.1707084159851,158.43995287093946L121.54199908065796,158.4486345328649L121.76477347946168,158.46620227193168L121.8204670791626,158.47445812255148L121.82974934577942,158.47959367636926L122.14534641075134,158.4919396708051L122.24745134353638,158.49923057835565L122.63730654144287,158.5146248388026L122.6930001411438,158.52492761942236L122.76725827407837,158.52471014971093L123.73261400222779,158.55209713696613L123.74189626884461,158.56878566061607L124.32667906570435,158.58795735474337L124.41950173187256,158.59861658878L124.46591306495667,158.60154899508734L124.78151012992859,158.6168039772756L124.82792146301269,158.6274165950487L124.94859092903137,158.63584703049582L124.96715546226501,158.64167856794455L125.55193825912477,158.65571732631452L126.03461612319947,158.67231688298438L126.34093092155456,158.68812787228703L127.12992358398438,158.711843264099L127.50121424865722,158.73235623943373L127.68685958099366,158.7423353811637L127.77039998054504,158.75428853111745L127.9653275794983,158.75863147437335L128.25307784461975,158.77188076035293L128.2716423778534,158.7801494218458L128.30877144432068,158.78456838858193L128.50369904327394,158.78563619092373L128.5315458431244,158.79175894151848L128.56867490959166,158.7953470514837L128.7171911754608,158.7979210181061L128.8007315750122,158.80255075515035L128.85642517471314,158.80659109555378L129.5340306377411,158.81699684289032L129.69182917022704,158.82647845364983L130.20235383415223,158.83918498675953L130.65718489837647,158.85430121454712L131.57612929344177,158.87242836370066L131.61325835990905,158.88464562268857L132.13306529045104,158.89085064495018L132.46722688865663,158.9047042588022L132.75497715377807,158.91364568658403L132.77354168701171,158.91999664266302L132.88492888641358,158.92557839784513L133.23765501785277,158.93341496815236L133.60894568252564,158.9391335391809L133.64607474899293,158.9423183512956L133.66463928222655,158.94503936879224L133.8595668811798,158.95053188405225L133.86884914779662,158.9539381661707L134.00808314704895,158.9558068885991L134.1194703464508,158.95856379216795L134.37009154510497,158.96248180978944L134.3886560783386,158.96504598381915L134.40722061157228,158.9667085428869L135.09410834121704,158.97021898544693L135.53037487220766,158.97837009214842L135.96664140319825,158.98330981144937L136.52357740020753,158.98880208498016L137.2104651298523,158.9962392734878L137.29400552940368,159.00459833222544L138.315054857254,159.01392755215696L138.35218392372133,159.0205125308001L138.50998245620727,159.02495500959617L138.71419232177735,159.02785575930332L138.97409578704833,159.0230884491091L139.0112248535156,159.02829428013845L139.20615245246887,159.0335945919846L139.32682191848752,159.03574923320252L139.45677365112306,159.0370425812191L139.5681608505249,159.03942416552374L139.5774431171417,159.04121966696212L139.67954804992678,159.0431303805348L140.08796778106688,159.0453911560884L140.97906537628174,159.05042510062466L141.3410737743378,159.0550503214399L141.55456590652466,159.05819120432582L141.6566708393097,159.06080228057073L142.055808303833,159.063701795697L142.47351030158998,159.06471192442163L142.835518699646,159.06639401268788L143.11398669815065,159.07003526984266L143.45743056297303,159.06972244102653L144.07934242630003,159.07454044109443L144.33924589157104,159.07758373348537L144.4135040245056,159.07995757523213L144.69197202301024,159.0780257770653L145.016851354599,159.08104400626888L145.19321442031858,159.08295809427713L145.21177895355223,159.08461043098097L145.2396257534027,159.08599249315213L145.3602952194214,159.08625265692444L145.8801021499634,159.08825984754978L146.0657474822998,159.08171877395282L146.67837707901003,159.08613460785648L146.9475628108978,159.08968198255047L147.1146436100006,159.09214963227063L147.49521654129026,159.0908405390454L147.73655547332763,159.09393030694156L148.2470801372528,159.0963551287113L148.3306205368042,159.09805179328367L148.57195946884156,159.0989188923594L148.94325013351443,159.10013718485428L149.4630570640564,159.10232107055705L149.56516199684143,159.10348543682684L149.69511372947693,159.1035908490596L149.8157831954956,159.10116768842036L149.98286399459838,159.1024141366406L150.159227060318,159.10454433375563L150.26133199310303,159.10592556957008L150.31702559280393,159.106811883155L150.42841279220582,159.1075161372453L150.58621132469176,159.10813833829877L150.91109065628052,159.10844333993353L150.97606652259827,159.10911079803958L151.75577691841127,159.1104374861332L151.80218825149538,159.1112063920931L151.8671641178131,159.11186483136458L151.92285771751403,159.11233248962677L152.2198902492523,159.11187758808444L152.22917251586912,159.11178584897024L152.27558384895323,159.11271603692433L152.40553558158874,159.11246126562708L152.4797937145233,159.11065754378336L152.48907598114013,159.10927090243888L153.10170557785034,159.11167717716484L153.12027011108398,159.1130601235989L153.48227850914003,159.10279786413338L153.87213370704652,159.1089204512868L154.2991179714203,159.11303399900362L154.50332783699034,159.11569954944213L155.43155449867248,159.11798483175554L155.5707884979248,159.11912323891266L155.72858703041078,159.1202812797651L155.80284516334532,159.1210385515953L156.11844222831726,159.12066459790904L156.41547476005553,159.12191086293706L156.53614422607424,159.12262464692307L156.5732732925415,159.12323266479427L157.06523342323305,159.12120328171412L157.10236248970034,159.12249514632964L157.24159648895264,159.1232551469679L157.97489555168153,159.1238296251414L158.4018798160553,159.12380922540373L158.41116208267212,159.1248082137787L158.44829114913938,159.1243801767062L158.81958181381225,159.12599178021733L158.94953354644775,159.12706777107678L159.07948527908326,159.12780633905146L159.21871927833556,159.11850019750946L159.43221141052246,159.1226870465992L159.51575181007385,159.12340772916832L159.64570354270936,159.12569495666415L160.7502932701111,159.1235686473329L160.8988095359802,159.12657688285987L161.02876126861574,159.128786416591L161.15871300125121,159.13021366416316L161.2422534008026,159.13080662880728L161.5114391326904,159.1270592399314L161.68780219841003,159.1293358061949L161.8363184642792,159.13090661071098L161.8920120639801,159.13190504401123L162.0312460632324,159.1326144635482L162.08693966293333,159.13307632862123L162.34684312820434,159.13352073862157L162.36540766143798,159.13380669116196L163.4607151222229,159.13026531623794L163.6742072544098,159.1325873267256L163.7206185874939,159.13386215816726L163.99908658599853,159.13489580614683L164.40750631713868,159.13570670425327L164.50032898330687,159.1362991532098L164.75095018196106,159.13518249807163L164.8530551147461,159.1328526102913L165.1593699131012,159.13494113374838L165.2336280460358,159.13623023141218L165.40999111175537,159.1370447077614L165.5120960445404,159.13759837979362L165.9019512424469,159.13812085504395L166.34750004005434,159.13361074228166L166.35678230667116,159.13406385755275L167.37783163452147,159.13425433273352L167.78625136566163,159.13575307728772L168.05543709754946,159.13807168495373L168.1668242969513,159.13947872696738L168.24108242988586,159.1402602166257L168.79801842689514,159.14092462496305L168.80730069351196,159.1414436970215L169.27141402435302,159.1419691073516L169.2992608242035,159.14224230393148L169.31782535743713,159.14247364900748L169.37351895713806,159.14263859614005L169.98614855384827,159.14296264982198L170.29246335220338,159.14319696497523L170.71944761657716,159.14269308011401L170.89581068229677,159.14336646487723L170.9236574821472,159.14378409530028L171.0443269481659,159.14408673796643L172.67800587272643,159.14426642206462L172.69657040596007,159.14413755117366L172.78939307212832,159.14377361249265L173.11427240371705,159.14461281929206L173.19781280326842,159.145254391228L173.86613599967956,159.14588931513254L173.90326506614687,159.1462327306732L174.44163652992248,159.14670694976775L174.82220946121217,159.14707319596636L175.1006774597168,159.14739966453098L175.11924199295044,159.14761019480773L175.24919372558594,159.14777197033573L175.27704052543638,159.1478009735926L175.4998149242401,159.1479483471686L175.87110558891297,159.14726406336075L175.90823465538026,159.14350330765666L176.38163025283814,159.1456448357462L176.51158198547364,159.14697349660497L176.86430811691284,159.14773415942113L176.8921549167633,159.14798728503533L177.06851798248292,159.12920772001513L177.47693771362304,159.1371071836963L177.53263131332398,159.14203156201773L177.54191357994077,159.1449718186333L177.69042984580994,159.14688003872354L177.80181704521178,159.1480545309321L178.4887047748566,159.14883800268927L178.5072693080902,159.1469184760499L178.68363237380984,159.14779854901153L178.8043018398285,159.14885125773534L178.8971245059967,159.14941962160395L178.9713826389313,159.14988850869554L180.02027876663206,159.14798014379335L180.2894644985199,159.1476561576257L180.3637226314545,159.14827536645495L181.14343302726743,159.14969181871078L181.58898182487488,159.14555625082113L182.09022422218322,159.14810925514212L182.22945822143555,159.14965343643541L182.23874048805237,159.1505891459587L182.3779744873047,159.1513592653745L182.59146661949157,159.1518959143412L182.74926515197754,159.15225619027697L182.83280555152893,159.1524671862084L183.14840261650085,159.152698424408L183.49184648132325,159.1364830689363L183.91883074569702,159.14307350178564L184.37366180992126,159.1472502688767L184.46648447608948,159.14977350358515L184.53146034240723,159.1512982057229L184.54074260902402,159.1522106095704L184.57787167549134,159.15276777473622L185.0419850063324,159.15318786334134L185.19978353881837,159.15345611797252L185.3111707382202,159.15363037014427L185.69174366950986,159.15381628290027L185.71959046936036,159.15393230678228L185.9702116680145,159.15404487701048L186.23939739990232,159.15415844800125L186.3879136657715,159.1542449529733L186.46217179870604,159.15431477816406L186.6570993976593,159.15436726906418L186.76848659706116,159.15439682339746L186.84274472999573,159.15447148657364L186.87987379646302,159.15449800733583L186.9170028629303,159.15448825693448L187.56676152610777,159.15463250960835L188.20723792266844,159.15483424328693L188.72704485321043,159.1463466772497L188.84771431922914,159.1479705415249L189.3953680496216,159.15102293956178L189.40465031623842,159.15286033509057L189.51603751564025,159.15395832479666L189.62742471504214,159.15456521808792L189.76665871429444,159.15501673172145L189.98943311309816,159.1553386635939L190.1101025791168,159.1540830893914L190.19364297866824,159.1142535562525L190.4906755104065,159.12939221162972L191.08474057388307,159.140112342361L191.3632085723877,159.14654828186076L191.4096199054718,159.15043451422798L191.41890217208862,159.15278883387575L191.53028937149048,159.1542156140444L191.63239430427552,159.15509373285136L192.6812904319763,159.15474855878705L192.69057269859312,159.15415893960946L192.74626629829407,159.1450835884578L192.77411309814454,159.1269965781272L192.88550029754637,159.1348351813786L193.02473429679873,159.14093450372113L193.73946882629394,159.1473824687326L193.9808077583313,159.15129606334645L194.0365013580322,159.1536560810289L194.04578362464903,159.15506778690747L194.6027196216583,159.15589859414317L194.84405855369567,159.15652102093028L195.26176055145265,159.11191056491313L195.28960735130312,159.11526757672897L195.49381721687317,159.1301533678503L195.8465433483124,159.14111734916372L195.93936601448058,159.14774674332082L195.97649508094787,159.1517256229145L195.9857773475647,159.15411038747303L196.8675926761627,159.1556550116267L196.88615720939634,159.15658251801992L197.5080690727234,159.1572041550764L197.88864200401306,159.15761251726164L198.35275533485415,159.157805069931L198.4270134677887,159.15798852606514L198.566247467041,159.15815657330654L198.65907013320924,159.15825235863716L198.69619919967653,159.15831330549042L198.826150932312,159.15834602715879L199.24385293006898,159.15839211009518L199.32739332962035,159.15846967962435L199.55016772842407,159.1576955103576L199.57801452827454,159.15721848659896L199.9957165260315,159.15770100703207L200.6547574558258,159.15727595824976L200.80327372169495,159.15742440532344L200.9982013206482,159.1580232489095L201.06317718696593,159.15839220524302L201.4344678516388,159.1586543657975L202.00996838188172,159.15886722669703L202.02853291511536,159.15899503300014L202.73398517799376,159.15906143269763L202.9196305103302,159.15917618747548L203.23522757530213,159.1592438995648L203.38374384117128,159.15933208947328L203.4858487739563,159.15890500625716L204.03350250434875,159.15803738282972L204.04278477096557,159.15845188593195L204.07991383743285,159.15869885408347L204.20058330345154,159.15895103059512L204.33981730270386,159.15919029638766L204.90603556632996,159.15940091920245L205.45368929672242,159.15955467998938L207.09665048789978,159.15977489921585L207.291578086853,159.15992533352724L207.57004608535766,159.16002300741704L207.86707861709593,159.16011143676906L207.95061901664735,159.1601688904187L208.12698208236694,159.16019996909947L208.29406288146973,159.16006644337952L208.70248261260986,159.1601945075687L208.78602301216125,159.1602342573324L208.97166834449766,159.13509935324097L209.17587821006774,159.13996550662154L209.38937034225464,159.14732683234476L209.54716887474058,159.1525520003117L209.57501567459107,159.15571638876494L209.60286247444154,159.15761522843684L209.9463063392639,159.15878656963739L210.20620980453492,159.15950546320985L210.37329060363768,159.15994729878747L210.39185513687133,159.16021348161814L211.1622832660675,159.16041744847587L211.26438819885254,159.16053879425272L211.5150093975067,159.1606294681331L211.75634832954407,159.1607011423402L211.98840499496458,159.1607545219475L212.01625179481505,159.16078482526657L213.00017205619812,159.16085996871618L213.0373011226654,159.16090862164535L213.1765351219177,159.1590670315652L213.19509965515135,159.15669527007992L213.2415109882355,159.14792349127734L213.29720458793642,159.1339556259867L213.41787405395507,159.1413285116051L213.49213218688968,159.14759254437882L213.82629378509523,159.1529864593633L213.97481005096435,159.15619484860255L214.6895445804596,159.15818894138258L214.89375444602967,159.15637134587442L214.91231897926332,159.1519072313167L215.02370617866515,159.12046489343982L215.09796431159972,159.13144708765654L215.15365791130066,159.13635207861242L215.394996843338,159.14575510337554L215.43212590980528,159.15161062118523L215.654900308609,159.15547375853095L215.75700524139407,159.15777829017847L215.9704973735809,159.15917561774666L216.0818845729828,159.16001817819708L216.37891710472107,159.16055611657998L217.11221616744993,159.16090873674509L217.38140189933776,159.1611236973091L217.4835068321228,159.16127675288237L217.80838616371156,159.161379907119L217.91049109649657,159.16144775667647L218.89441135787965,159.15511491377572L218.9129758911133,159.1506176880371L218.99651629066466,159.15232718625543L219.03364535713195,159.15533413569693L219.04292762374877,159.15627018757334L219.10790349006655,159.158262787727L219.25641975593567,159.15959825888345L219.30283108901978,159.16036472758827L219.72981535339358,159.1609023150825L219.76694441986083,159.1612363019112L219.78550895309448,159.16142223582355L220.1475173511505,159.16156524866526L220.17536415100096,159.161648710787L220.30531588363647,159.16170858132813L221.02933267974853,159.16149211093057L221.0943085460663,159.1613354709671L221.33564747810362,159.13547749968671L223.35918160057068,159.14609726498813L223.58195599937437,159.15248831829905L223.82329493141174,159.15627532190373L223.83257719802856,159.15852811690283L224.03678706359864,159.15990926403597L224.12960972976683,159.16079112441045L224.27812599563597,159.16132642854436L224.49161812782287,159.16165357689297L224.900037858963,159.16185212614843L225.30845759010316,159.16197269299678L225.40128025627138,159.16207384771963L225.419844789505,159.16212914090468L225.48482065582274,159.162163474784L225.62405465507507,159.16137479048166L226.2830955848694,159.16167233493388L226.30166011810303,159.16191257589065L226.6451039829254,159.16206788226415L227.09065278053285,159.16217886435643L227.2855803794861,159.16225000704497L227.5454838447571,159.16230039295687L227.61974197769166,159.16225150605487L227.71256464385985,159.1622264692771L228.0374439754486,159.16200693116053L228.38088784027101,159.15757186991897L228.76146077156068,159.15939904531766L228.89141250419615,159.1606049828964L229.2905499687195,159.1613500095992L229.79179236602783,159.16181233141097L230.01456676483153,159.1620973143425L230.02384903144835,159.16226258750152L231.32336635780334,159.16237554515772L231.57398755645752,159.16247015282818L231.89886688804626,159.16252962052317L231.9545604877472,159.16257276658206L231.99168955421447,159.16259109036517L232.54862555122375,159.16261884521992L232.5950368843079,159.1626388573629L232.71570635032654,159.1626464973819L232.92919848251344,159.16259890210026L233.04058568191527,159.1625737598003L233.7460379447937,159.13388916296674L234.11732860946654,159.14496600511646L234.48861927413938,159.15206626343212L234.822780872345,159.15634259456644L235.02699073791504,159.15891476042566L235.11981340408326,159.16046301756697L235.41684593582156,159.1613928353611L235.56536220169068,159.16195783875676L235.82526566696166,159.16230178359658L235.83454793357848,159.16250436782806L236.69779872894287,159.1626461302615L237.05052486038207,159.16273553069456L237.52392045783995,159.16280217825616L237.5424849910736,159.16284510839702L237.87664658927918,159.1628508156361L238.04372738838197,159.1628768271039L238.07157418823243,159.16286461268706L238.7213328514099,159.162893494454L239.15759938240052,159.16227898617706L239.44534964752197,159.16156564343066L239.64027724647522,159.16199249828065L240.12295511054992,159.1623884108227L240.65204430770874,159.16264716299258L240.8933832397461,159.16280662622538L241.58027096939088,159.1629158807746L241.71022270202636,159.16298376189644L241.988690700531,159.16300432492065L242.04438430023194,159.16303773860233L242.4620862979889,159.16303126021168L243.38103069305419,159.16307183274168L243.94724895668028,159.15729445514006L244.170023355484,159.15952382233792L244.22571695518494,159.16054932552416L244.64341895294191,159.16158716045888L244.84762881851196,159.16222232957497L244.96829828453065,159.16260591577654L245.37671801567078,159.1628410393032L245.6923150806427,159.16298922284426L245.72944414710997,159.16307645291633L245.88724267959594,159.16313230019853L245.9058072128296,159.163166988102L246.96398560714724,159.1631964199308L247.14963093948364,159.1632191993243L247.24245360565186,159.16323389543058L247.4745102710724,159.16324291336346L247.8736477355957,159.16324702453565L248.0035994682312,159.1632587758049L248.37489013290406,159.16327256697858L248.45843053245545,159.16328117904177L248.89469706344605,159.16329069347324L248.93182612991333,159.16329822236278L249.02464879608155,159.16329817483702L249.12675372886656,159.1632979177183L249.16388279533388,159.1633042045621L249.19172959518434,159.16330749581147L249.2659877281189,159.16331158908514L249.46091532707214,159.16331152014521L249.5258911933899,159.16330564971975L249.72081879234315,159.16328616468772L250.04569812393188,159.1633059312583L250.2313434562683,159.16330539695608L250.24990798950193,159.1633057088103L250.4077065219879,159.16330578793915L250.53765825462344,159.1632956845875L251.11315878486636,159.10654783558786L251.1317233181,158.97952344038933L251.26167505073548,159.05178387216668L251.6608125152588,159.09604210860556L251.753635181427,159.1229647699213L252.14349037933349,159.13913108755716L252.23631304550173,159.14883129252232L252.35698251152039,159.15465489558267L252.9324830417633,159.15815597313724L253.15525744056703,159.16025837746773L254.3155407676697,159.16153114167926L254.74252503204343,159.16229680330912L254.95601716423033,159.16276132614198L256.3019458236694,159.1630428748258L256.64538968849183,159.16321977830876L256.7567768878937,159.16333131459146L256.99811581993106,159.16326384849881L257.14663208580015,159.16321643215096L257.1651966190338,159.16318775409923L257.23945475196837,159.16303010089197L257.258019285202,159.16296133889733L257.6478744831085,159.1353609920014L258.17696368026736,159.1465383783035L258.31619767951963,159.15332471700023L258.32547994613645,159.15739345686248L258.817440076828,159.15984839057157L259.0402144756317,159.16132234025307L259.13303714179995,159.16220808070364L259.2444243412018,159.162740621127L259.2722711410523,159.16305840186618L259.8106426048279,159.1632525392992L260.4232722015381,159.16337718249403L260.50681260108945,159.16345061534622L260.80384513282775,159.1634972204209L260.88738553237914,159.16352713629553L260.9616436653137,159.1635471209375L261.0359017982483,159.16355593859458L261.2122648639679,159.16356485999955L261.32365206336976,159.16356872096367L261.3422165966034,159.16357323090335L261.6021200618744,159.16353920540809L262.07551565933227,159.16356305807886L262.3447013912201,159.16357687898082L262.36326592445374,159.1635776847587L262.59532258987423,159.16358402008808L262.71599205589297,159.1634951528112L262.7345565891266,159.16336653372667L262.81809698867795,159.16287460652484L263.4028797855377,159.1626095872835L263.8112995166779,159.16300225595265L263.857710849762,159.16325074754218L264.46105817985534,159.1633960991464L265.0087119102478,159.16349738929569L265.2871799087524,159.16355608445437L265.3521557750702,159.16359028939533L265.3985671081543,159.16361569584336L265.4449784412384,159.16363124602205L265.5378011074066,159.16363381621008L265.6677528400421,159.16362964158142" fill="none"></path></g></g></g></g><g opacity="0.2"><g><g><g><path style="fill: none;" stroke="rgb(204, 51, 17)" stroke-width="2px" d="M18.731614032745362,13.122408369462933L19.000799764633175,16.286873700423172L19.140033763885498,18.348495170171365L19.14931603050232,18.511467799486127L19.390654962539674,22.253437765309346L19.520606695175168,24.07345058337086L19.557735761642455,24.670494056178715L19.752663360595704,28.3432390238624L20.08682495880127,36.25722734509617L20.16108309173584,38.21557209999301L20.829406288146973,53.478845124429796L20.968640287399293,56.30920222950516L21.182132419586182,60.520846393937234L21.52557628440857,67.07199866031297L22.147488147735594,78.41424770680607L22.296004413604734,81.0144732246932L22.416673879623414,83.10354351511924L22.62088374519348,86.5689592338982L22.880787210464476,90.76180243190902L22.973609876632693,92.20729274663609L23.029303476333617,93.0618660304055L23.298489208221437,97.06125618056393L23.511981340408326,100.08568192916283L23.55839267349243,100.72634836644573L23.576957206726075,100.98094355694775L23.725473472595215,102.98328232028581L24.096764137268067,107.71792138782621L24.47733706855774,112.18306447649667L24.533030668258668,112.81059258425086L24.542312934875486,112.91451440963428L24.672264667510987,114.34613695612643L24.83006319999695,116.00711527060486L25.656184928894042,126.60759472365172L25.758289861679078,128.04252504277392L26.027475593566894,131.02310014082758L26.519435724258425,133.8165236138404L26.602976123809814,134.06328050055745L26.788621456146238,134.4837407767467L27.30842838668823,135.17239626972005L27.98603384971619,135.68495345307602L28.08813878250122,135.7434476910581L28.190243715286254,135.79817035145243L28.366606781005856,135.88461094633968L28.505840780258175,136.11405315070442L28.87713144493103,136.5439096936956L29.00708317756653,136.67155725086923L29.07205904388428,136.73150825805934L29.257704376220705,136.89101499941754L29.36909157562256,136.98095099712228L29.480478775024412,137.06660312358144L29.554736907958983,137.11978047018493L29.870333972930908,137.31926087428292L30.18593103790283,137.49771404816275L30.204495571136476,137.50850172983775L30.325165037155152,137.57840346157462L30.362294103622435,137.5992198713575L31.049181833267212,137.93703853690386L31.336932098388672,138.07241055482737L31.717505029678346,138.25390165118006L32.08879569435119,138.4102355449868L32.09807796096802,138.41377732830006L32.43223955917358,138.53711993218457L32.58075582504273,138.59398663640604L32.60860262489319,138.60473215399398L32.933481956481934,138.72979083622195L32.9613287563324,138.74032974978326L33.0912804889679,138.78960691833345L33.37903075408936,138.90276267878363L33.666781019210816,139.01443004696048L33.74103915214539,139.04271371656213L34.06591848373413,139.17543782981812L34.20515248298645,139.23701637076883L34.36295101547241,139.31165523768723L34.381515548706055,139.323343122621L34.44649141502381,139.35929854786372L35.059121011734014,139.69621701015132L35.7088796749115,140.14187243656488L35.829549140930176,140.22765527169395L36.19155753898621,140.4817044372685L36.28438020515442,140.54585498753005L36.57213047027588,140.74235228246835L36.75777580261231,140.8663631871328L36.76705806922913,140.87252125204833L36.93413886833191,140.98261168336904L37.77882513046264,141.5778726693963L37.86236553001404,141.63977587381743L37.95518819618225,141.70564039421805L38.05729312896728,141.77749432318598L39.06906019020081,142.45142822516135L40.09010951805114,143.08887648849924L40.461400182724006,143.31598280244071L41.17613471221924,143.7505311542198L41.22254604530334,143.77821609378515L41.34321551132202,143.84890207754142L41.41747364425659,143.89240487436837L41.44532044410706,143.9086022084135L41.63096577644348,144.01585921308362L41.798046575546266,144.11101617886888L41.927998308181756,144.18440066419717L42.04866777420044,144.2820242290756L42.48493430519104,144.77646666652726L42.49421657180787,144.78491951188116L42.689144170761104,144.95673289615078L42.949047636032105,145.17819449293674L43.02330576896667,145.24285101224305L43.097563901901246,145.3068792866521L43.47813683319092,145.6306973670893L43.56167723274231,145.70251651068537L43.70091123199463,145.81821371148325L43.78445163154602,145.88440394945647L43.99794376373291,146.04793314472045L44.11861322975159,146.1375170722982L44.12789549636841,146.1443603036285L44.13717776298523,146.1511792906087L44.25784722900391,146.23659318997596L44.41564576148987,146.34785999932575L44.66626696014404,146.52626890091415L44.963299491882324,146.73894139375187L45.12109802436829,146.85141725829817L46.05860695266723,147.50536959941456L46.16071188545227,147.5692682192559L47.18176121330261,148.1429812485898L47.19104347991943,148.1478965270391L47.37668881225586,148.24407386373133L47.38597107887268,148.2488204858324L47.525205078125,148.32103702594904L47.757261743545534,148.44127108251487L48.25850414085389,148.70375622780847L48.425584939956664,148.7925949051474L48.64835933876037,148.90600048781343L48.87113373756409,149.01223395927008L48.89898053741455,149.02607642905278L49.71581999969482,149.41798318548317L50.161368797302245,149.62582683625004L50.690457994461056,149.88456570240814L50.89466786003113,149.9757782178487L50.968925992965694,150.00940196907686L51.05246639251708,150.04681732583413L51.29380532455444,150.15455394699455L51.6650959892273,150.3190202390935L51.69294278907776,150.33064645904997L51.98069305419922,150.44968569079865L52.12920932006836,150.50945117600568L52.48193545150757,150.64999040279872L52.50978225135803,150.66138893668503L52.54691131782532,150.67651530291877L52.61188718414307,150.69100130208025L52.63973398399353,150.71217979596076L52.816097049713136,150.78263545839144L53.02030691528321,150.86081768977638L53.475137979507444,151.02580523540163L53.670065578460694,151.09293098905655L54.28269517517089,151.2881617802297L54.301259708404544,151.2956121744137L54.78393757247925,151.42947629917361L54.90460703849792,151.46177767922126L54.96030063819885,151.47362420653263L55.07168783760071,151.5078445795927L55.4615430355072,151.606870100366L55.80498690032959,151.68505971046616L55.90709183311463,151.7091206467485L56.129866231918335,151.75780909923304L56.473310096740725,151.8302817861786L56.705366762161255,151.87704966449746L56.816753961563116,151.8972915885941L56.844600761413574,151.905123567766L57.048810626983645,151.94472513243744L57.37368995857239,152.00886777693268L57.475794891357424,152.03097915123945L57.80067422294617,152.09406400420048L58.07914222145081,152.1471506980168L58.64536048507691,152.25601784376158L58.73818315124512,152.27330617355946L59.9077487449646,152.50029495510825L60.65961234092712,152.64291761485327L60.69674140739441,152.65822792191685L60.92879807281494,152.69639379942382L61.374346870422364,152.7832238850653L61.71779073524475,152.84037941328316L62.098363666534425,152.90589133650573L62.11692819976807,152.90853555181565L62.17262179946899,152.91697469384127L62.25616219902039,152.9318538731146L62.46965433120727,152.96581599114143L62.905920862197874,153.041625965578L63.41644552612305,153.12768761073275L63.444292325973514,153.13139910449644L63.45357459259033,153.13373499491973L63.5278327255249,153.14688755482786L63.88055885696411,153.20248828233525L64.14046232223511,153.22692553309463L64.31682538795471,153.27330075835272L64.50247072029114,153.3013936354604L64.7902209854126,153.34654715629586L65.7091653804779,153.48752594369654L65.7927057800293,153.4993629840883L65.81127031326294,153.49988160235915L66.20112551116944,153.5527500970249L66.23825457763672,153.56251266433318L66.37748857688904,153.58670747159195L66.41461764335632,153.59177664895907L66.7116501750946,153.63063507159603L66.83231964111327,153.65204335975105L67.06437630653382,153.68940337614404L67.18504577255248,153.7017221412305L67.32427977180481,153.72862388287868L67.4078201713562,153.74215539251927L67.43566697120667,153.7450467947896L67.71413496971131,153.78955098868428L67.93690936851502,153.82531509438195L67.96475616836547,153.82934967046276L68.33604683303834,153.88819808677619L68.4103049659729,153.89191221579532L68.716619764328,153.94096011712207L69.1064749622345,154.0036043553733L69.1900153617859,154.01653502677328L69.23642669487,154.024634747898L69.70054002571106,154.0941006083849L71.16713815116883,154.32352067660395L71.75192094802856,154.41175377224243L72.01182441329956,154.45074659290694L72.22531654548645,154.48045066519154L72.69871214294433,154.55187768277793L73.01430920791626,154.6013756857341L73.13497867393494,154.62197705867294L73.84971320343017,154.7372879310231L74.08176986885071,154.7730617871659L74.23028613471985,154.79560428926288L74.34167333412171,154.8125877200062L74.75009306526185,154.87214106715018L75.28846452903747,154.94507228854255L75.49267439460755,154.98584680541097L75.53908572769164,155.00005030518915L75.57621479415893,155.01340314451082L76.3466429233551,155.21477566201574L76.51372372245788,155.24980347734308L76.84788532066347,155.31831537536019L77.33984545135498,155.42438783270936L77.35840998458862,155.42859238276614L77.58118438339234,155.47687579648937L77.59046665000916,155.47979961240162L77.63687798309326,155.4890290675341L77.68328931617737,155.4986287760561L78.64864504432677,155.6501272396534L79.15916970825195,155.72277227230478L79.32625050735473,155.7503678767107L79.37266184043885,155.76119060728305L79.49333130645752,155.77575118417354L79.53974263954163,155.7839692282676L79.68825890541078,155.79706354903047L79.73467023849487,155.8085804058861L79.81821063804627,155.8179843149288L79.96672690391541,155.8372182538191L80.50509836769105,155.90257917690488L80.94136489868164,155.96497253883808L81.03418756484984,155.97453904314153L81.21983289718628,155.98713767235586L81.70251076126098,156.05335347230684L82.07380142593384,156.09584696629972L82.1480595588684,156.10666468988674L82.2315999584198,156.1122696146851L82.38011622428894,156.13521741906897L82.76068915557862,156.1771135006533L82.78853595542908,156.1788472352082L82.89064088821412,156.19055620218552L83.45685915184022,156.24746744222392L83.50327048492431,156.25552974272142L83.52183501815796,156.26143535016564L84.04164194869996,156.31700313698002L84.62642474555969,156.37417105089844L84.65427154541015,156.38081373928964L84.70996514511108,156.38422692213734L85.0626912765503,156.42464304426576L85.19264300918579,156.41179380225896L85.4618287410736,156.46544575836742L85.88881300544739,156.50829817415143L86.08374060440063,156.52660476665187L86.39933766937257,156.55758403904457L86.67780566787721,156.58307091204625L86.81703966712952,156.5949198110875L86.94699139976501,156.6055720406328L87.58746779632568,156.6500006026963L87.84737126159668,156.6763244328262L87.88450032806396,156.6810552433946L87.90306486129761,156.6814587010027L88.01445206069945,156.68844265497356L88.23722645950318,156.71012685437327L88.34861365890502,156.71987097489347L88.47856539154053,156.73065918361954L88.58067032432557,156.7361423596165L88.67349299049378,156.7463671507292L89.04478365516663,156.77321908604955L89.12832405471802,156.78163978128705L89.14688858795166,156.782272242593L89.46248565292358,156.80545985522204L89.51817925262452,156.8107925581333L89.66669551849365,156.82225275699693L90.28860738182067,156.87258218304487L90.31645418167113,156.8767798814375L90.5577931137085,156.89320674623158L90.91051924514771,156.920467936722L90.91980151176453,156.92108985700617L91.16114044380187,156.93397651964023L91.31893897628785,156.94811123925138L91.47673750877381,156.95937273985473L91.84802817344665,156.98360272777364L91.90372177314758,156.98643813086582L92.16362523841859,157.0047134955893L92.69271443557739,157.0387549348049L93.24965043258666,157.06682356756255L93.54668296432494,157.09232677914798L93.95510269546509,157.11919373542432L94.15931256103516,157.12692610194054L94.34495789337159,157.14470155870677L94.60486135864258,157.16240177893013L94.8276357574463,157.04762428228133L94.94830522346496,157.18241061468296L95.3938540210724,157.2096928872169L95.52380575370789,157.21701744795354L95.570217086792,157.21939273544567L96.09002401733399,157.24652348079172L96.19212895011901,157.2537780754964L96.32208068275452,157.2608537363566L96.50772601509095,157.26869243542987L96.63767774772644,157.2785684504849L97.38025907707215,157.3201612141679L97.90934827423096,157.3467434310938L97.96504187393188,157.34983643040542L98.04858227348328,157.3544512897344L98.55910693740844,157.37365769020533L98.64264733695984,157.37662367020465L98.93967986869812,157.3906627300433L98.97680893516541,157.3976586744264L99.26455920028687,157.4082070749073L99.3202527999878,157.411038129828L99.48733359909058,157.42064231828425L99.5430271987915,157.4220367637011L99.8029306640625,157.42529828759817L99.82149519729614,157.4320191113132L100.02570506286622,157.44540502309064L100.04426959609985,157.44631076038587L100.46197159385682,157.46169748985722L100.55479426002502,157.46120390651305L100.85182679176332,157.47522689129346L100.89823812484741,157.48040991169563L100.96321399116516,157.48241415522162L101.33450465583802,157.49878357144706L101.37163372230529,157.501991994947L101.96569878578185,157.52598625926666L102.16062638473511,157.532468724127L102.41124758338928,157.54507486381937L102.64330424880981,157.55374683066321L103.22808704566955,157.57585912730937L103.51583731079103,157.58437469174277L104.07277330780029,157.59224554093242L104.44406397247315,157.6194737907298L104.80607237052918,157.63165921189093L104.91745956993104,157.6357708691934L104.93602410316468,157.63626524311422L105.00099996948242,157.63223514696764L105.14023396873473,157.64466459278265L105.30731476783752,157.63933926858664L105.43726650047302,157.65329518611605L105.5579359664917,157.65900473055544L105.6043472995758,157.66082806379535L105.69716996574402,157.65859797887805L106.3376463623047,157.68584414841243L107.09879222488404,157.70899381336312L107.18233262443543,157.7158992367218L107.35869569015503,157.71819480773684L107.6093168888092,157.72891502687253L108.33333368492127,157.7608676308625L108.3426159515381,157.76108490767365L108.52826128387451,157.77084062331778L108.63964848327636,157.7753112024114L108.71390661621095,157.77838246086557L109.09447954750061,157.79557895201134L109.10376181411743,157.79507034771115L109.27084261322022,157.80543019566522L109.65141554450989,157.82435580966884L109.75352047729493,157.81798547492753L109.8741899433136,157.83479576938834L109.99485940933228,157.83927820713143L110.15265794181823,157.8434527152762L110.40327914047242,157.8539190275501L110.49610180664062,157.86133068347908L110.6167712726593,157.86104172771994L110.90452153778075,157.88225632459998L110.91380380439757,157.88279338965896L110.9230860710144,157.8809601742111L111.01590873718261,157.88766268290084L111.1365782032013,157.89218201422008L111.19227180290221,157.89626679191707L111.32222353553772,157.88321318585076L111.97198219871521,157.9332265130085L112.2226033973694,157.94495577145273L112.51035366249086,157.96124415357335L112.66815219497681,157.97006198180588L113.16011232566834,157.99032722791316L113.31791085815429,158.0049771399631L113.38288672447204,158.008709320482L113.88412912178039,158.0226141140559L113.98623405456543,158.03833525744275L114.56173458480835,158.07156187567588L114.58958138465881,158.07337078089228L114.59886365127562,158.07425365734653L115.05369471549989,158.1013625300724L115.51780804634095,158.12733692533075L115.57350164604186,158.12531627733966L115.58278391265868,158.1282236887868L115.63847751235961,158.13380996915288L116.03761497688294,158.15803837591852L116.1954135093689,158.16997456779626L116.59455097389221,158.18640874542422L116.70593817329406,158.20056737997848L116.91943030548096,158.2097758848302L117.26287417030333,158.23034458060155L117.35569683647155,158.22899012518604L117.3742613697052,158.23190372948346L117.94976189994811,158.27267383229906L118.04258456611633,158.2787552112812L118.10756043243407,158.2815684782277L118.54382696342469,158.30877307660748L119.202867893219,158.34663102451614L120.44669161987305,158.40993223194891L120.88295815086364,158.43799724123033L120.92936948394777,158.44361909754488L121.00362761688233,158.452006786208L121.1707084159851,158.4612091640908L121.54199908065796,158.46165702575308L121.76477347946168,158.49255388053183L121.8204670791626,158.48684189848117L121.82974934577942,158.48729700709592L122.14534641075134,158.51045866245886L122.24745134353638,158.51016693968148L122.63730654144287,158.537716229473L122.6930001411438,158.540381790352L122.76725827407837,158.5243839451438L123.73261400222779,158.59317761784897L123.74189626884461,158.59381844609092L124.32667906570435,158.6167148959344L124.41950173187256,158.61460543983492L124.46591306495667,158.60594760454836L124.78151012992859,158.63968645055792L124.82792146301269,158.64333552170837L124.94859092903137,158.64849268366652L124.96715546226501,158.65042587411764L125.55193825912477,158.67677546386946L126.03461612319947,158.69721621798914L126.34093092155456,158.711844356241L127.12992358398438,158.74741635181698L127.50121424865722,158.76312570243576L127.68685958099366,158.75730409375873L127.77039998054504,158.77221825604806L127.9653275794983,158.76514588925716L128.25307784461975,158.79175468932232L128.2716423778534,158.79255241408515L128.30877144432068,158.79119683868606L128.50369904327394,158.78723789443643L128.5315458431244,158.80094306741063L128.56867490959166,158.80072921643153L128.7171911754608,158.8017819680397L128.8007315750122,158.80949536071674L128.85642517471314,158.8126516061589L129.5340306377411,158.8326054638951L129.69182917022704,158.84070086978906L130.20235383415223,158.85824478642408L130.65718489837647,158.8769755562285L131.57612929344177,158.89961908743098L131.61325835990905,158.90297151117045L132.13306529045104,158.90015817834256L132.46722688865663,158.92548467958028L132.75497715377807,158.92705782825675L132.77354168701171,158.9295230767815L132.88492888641358,158.93395103061832L133.23765501785277,158.94516982361318L133.60894568252564,158.94771139572367L133.64607474899293,158.9470955694677L133.66463928222655,158.9491208950372L133.8595668811798,158.95877065694225L133.86884914779662,158.95904758934844L134.00808314704895,158.9586099722417L134.1194703464508,158.9626991475212L134.37009154510497,158.96835883622168L134.3886560783386,158.96889224486372L134.40722061157228,158.9692023814885L135.09410834121704,158.975484649287L135.53037487220766,158.99059675220067L135.96664140319825,158.99071939040078L136.52357740020753,158.9970404952764L137.2104651298523,159.00739505624924L137.29400552940368,159.01713692033195L138.315054857254,159.0279213820542L138.35218392372133,159.0303899987648L138.50998245620727,159.03161872779023L138.71419232177735,159.03220688386406L138.97409578704833,159.0159374838178L139.0112248535156,159.03610302668247L139.20615245246887,159.04154505975387L139.32682191848752,159.03898119502938L139.45677365112306,159.03898260324402L139.5681608505249,159.04299654198064L139.5774431171417,159.04391291911972L139.67954804992678,159.04599645089377L140.08796778106688,159.04878231941885L140.97906537628174,159.05797601742904L141.3410737743378,159.06198815266274L141.55456590652466,159.06290252865472L141.6566708393097,159.06471889493804L142.055808303833,159.06805106838647L142.47351030158998,159.06622711750856L142.835518699646,159.06891714508728L143.11398669815065,159.07549715557485L143.45743056297303,159.06925319780228L144.07934242630003,159.0817674411963L144.33924589157104,159.08214867207175L144.4135040245056,159.08351833785227L144.69197202301024,159.0751280798151L145.016851354599,159.08557135007425L145.19321442031858,159.08582922628952L145.21177895355223,159.08708893603674L145.2396257534027,159.08806558640885L145.3602952194214,159.08664290258292L145.8801021499634,159.09127063348774L146.0657474822998,159.07190716355734L146.67837707901003,159.09275835871202L146.9475628108978,159.0950030445915L147.1146436100006,159.09585110685083L147.49521654129026,159.08887689920752L147.73655547332763,159.0985649587858L148.2470801372528,159.099992361366L148.3306205368042,159.10059679014216L148.57195946884156,159.10021954097297L148.94325013351443,159.10196462359661L149.4630570640564,159.1055968991112L149.56516199684143,159.10523198623153L149.69511372947693,159.10374896740876L149.8157831954956,159.09753294746147L149.98286399459838,159.10428380897093L150.159227060318,159.1077396294282L150.26133199310303,159.10799742329175L150.31702559280393,159.10814135353232L150.42841279220582,159.1085725183808L150.58621132469176,159.109071639879L150.91109065628052,159.1089008423857L150.97606652259827,159.11011198519864L151.75577691841127,159.11242751827362L151.80218825149538,159.11235975103293L151.8671641178131,159.11285249027185L151.92285771751403,159.11303397702002L152.2198902492523,159.11119523577094L152.22917251586912,159.1116482402989L152.27558384895323,159.11411131885552L152.40553558158874,159.11207910868117L152.4797937145233,159.10795196101782L152.48907598114013,159.10719094042219L153.10170557785034,159.11528658925377L153.12027011108398,159.11513454324995L153.48227850914003,159.08740447493517L153.87213370704652,159.1181043320169L154.2991179714203,159.11920432057886L154.50332783699034,159.11969787509992L155.43155449867248,159.12141275522566L155.5707884979248,159.12083084964834L155.72858703041078,159.12201834104368L155.80284516334532,159.12217445934067L156.11844222831726,159.12010366737962L156.41547476005553,159.12378026047907L156.53614422607424,159.1236953229021L156.5732732925415,159.1241446916011L157.06523342323305,159.1181592070939L157.10236248970034,159.12443294325294L157.24159648895264,159.12439514792527L157.97489555168153,159.12469134240172L158.4018798160553,159.12377862579717L158.41116208267212,159.1263066963411L158.44829114913938,159.12373812109752L158.81958181381225,159.128409185484L158.94953354644775,159.12868175736597L159.07948527908326,159.12891419101348L159.21871927833556,159.1045409851965L159.43221141052246,159.12896732023373L159.51575181007385,159.12448875302206L159.64570354270936,159.12912579790785L160.7502932701111,159.120379183336L160.8988095359802,159.13108923615033L161.02876126861574,159.1321007171877L161.15871300125121,159.1323545355214L161.2422534008026,159.13169607577348L161.5114391326904,159.12143815661756L161.68780219841003,159.1327506555901L161.8363184642792,159.13326281748513L161.8920120639801,159.13340269396167L162.0312460632324,159.1336785928536L162.08693966293333,159.1337691262308L162.34684312820434,159.1341873536221L162.36540766143798,159.13423561997254L163.4607151222229,159.1249532538519L163.6742072544098,159.13607034245706L163.7206185874939,159.13577440532978L163.99908658599853,159.13644627811613L164.40750631713868,159.1369230514129L164.50032898330687,159.1371878266446L164.75095018196106,159.13350751536444L164.8530551147461,159.12935777862083L165.1593699131012,159.13807391893403L165.2336280460358,159.13816387790786L165.40999111175537,159.13826642228523L165.5120960445404,159.13842888784197L165.9019512424469,159.1389045679195L166.34750004005434,159.12684557313818L166.35678230667116,159.1347435304594L167.37783163452147,159.13454004550465L167.78625136566163,159.138001194119L168.05543709754946,159.1415495964528L168.1668242969513,159.14158928998788L168.24108242988586,159.14143245111325L168.79801842689514,159.14192123746898L168.80730069351196,159.14222230510921L169.27141402435302,159.14275722284674L169.2992608242035,159.14265209880136L169.31782535743713,159.14282066662147L169.37351895713806,159.14288601683884L169.98614855384827,159.14344873034491L170.29246335220338,159.1435484377051L170.71944761657716,159.14193725282217L170.89581068229677,159.14437654202203L170.9236574821472,159.1444105409348L171.0443269481659,159.1445407019657L172.67800587272643,159.14453594821194L172.69657040596007,159.14394424483723L172.78939307212832,159.14322770447114L173.11427240371705,159.1458716294912L173.19781280326842,159.14621674913195L173.86613599967956,159.14684170098928L173.90326506614687,159.14674785398427L174.44163652992248,159.14741827840953L174.82220946121217,159.14762256526424L175.1006774597168,159.14788936737796L175.11924199295044,159.1479259902228L175.24919372558594,159.14801463362772L175.27704052543638,159.14784447847794L175.4998149242401,159.14816940753266L175.87110558891297,159.1462376376489L175.90823465538026,159.13786217410052L176.38163025283814,159.14885712788055L176.51158198547364,159.14896648789315L176.86430811691284,159.1488751536454L176.8921549167633,159.1483669734566L177.06851798248292,159.10103837248482L177.47693771362304,159.148956379218L177.53263131332398,159.14941812949996L177.54191357994077,159.14938220355663L177.69042984580994,159.1497423688589L177.80181704521178,159.14981626924492L178.4887047748566,159.15001321032508L178.5072693080902,159.14403918609088L178.68363237380984,159.14911865845394L178.8043018398285,159.15043032082102L178.8971245059967,159.15027216740688L178.9713826389313,159.15059183933286L180.02027876663206,159.1451175964401L180.2894644985199,159.14717017837427L180.3637226314545,159.1492041796988L181.14343302726743,159.1518164970945L181.58898182487488,159.13935289898663L182.09022422218322,159.15193876162365L182.22945822143555,159.15196970837533L182.23874048805237,159.15199271024363L182.3779744873047,159.15251444449817L182.59146661949157,159.15270088779127L182.74926515197754,159.15279660418062L182.83280555152893,159.15278368010559L183.14840261650085,159.15304528170736L183.49184648132325,159.11216003572875L183.91883074569702,159.1529591510597L184.37366180992126,159.1535154195133L184.46648447608948,159.15355835564785L184.53146034240723,159.15358525892947L184.54074260902402,159.1535792153417L184.57787167549134,159.15360352248496L185.0419850063324,159.15381799624902L185.19978353881837,159.15385849991924L185.3111707382202,159.1538917484019L185.69174366950986,159.15409515203427L185.71959046936036,159.15410634260533L185.9702116680145,159.15421373235276L186.23939739990232,159.15432880448745L186.3879136657715,159.15437471043137L186.46217179870604,159.15441951595022L186.6570993976593,159.1544460054144L186.76848659706116,159.15444115489734L186.84274472999573,159.1545834813379L186.87987379646302,159.1545377884791L186.9170028629303,159.15447363133248L187.56676152610777,159.15484888861914L188.20723792266844,159.15513684380474L188.72704485321043,159.13361532819388L188.84771431922914,159.15040633793774L189.3953680496216,159.15560153661707L189.40465031623842,159.15561642838378L189.51603751564025,159.15560530935582L189.62742471504214,159.1554755580248L189.76665871429444,159.15569400217177L189.98943311309816,159.15582156140258L190.1101025791168,159.15219972808768L190.19364297866824,159.05450925654412L190.4906755104065,159.15210019469555L191.08474057388307,159.15619253845793L191.3632085723877,159.1562021911104L191.4096199054718,159.1562638627788L191.41890217208862,159.15632031334735L191.53028937149048,159.15635578429738L191.63239430427552,159.15641091106184L192.6812904319763,159.15423079769053L192.69057269859312,159.1532745108431L192.74626629829407,159.13147056173028L192.77411309814454,159.09986606263138L192.88550029754637,159.1465930862557L193.02473429679873,159.15008348723484L193.73946882629394,159.1570544162498L193.9808077583313,159.15716645526723L194.0365013580322,159.1571961075526L194.04578362464903,159.15718534572528L194.6027196216583,159.15714480499673L194.84405855369567,159.1574546611109L195.26176055145265,159.0449948808874L195.28960735130312,159.12030309445274L195.49381721687317,159.15248205453236L195.8465433483124,159.1575633211338L195.93936601448058,159.1576908345565L195.97649508094787,159.157693942305L195.9857773475647,159.1576875343108L196.8675926761627,159.15797194785722L196.88615720939634,159.15797377760978L197.5080690727234,159.15813661066113L197.88864200401306,159.15822506053948L198.35275533485415,159.15809389893505L198.4270134677887,159.15826371026634L198.566247467041,159.15840864416865L198.65907013320924,159.1583960366331L198.69619919967653,159.15840472577025L198.826150932312,159.1583951096614L199.24385293006898,159.15846123449975L199.32739332962035,159.15858603391814L199.55016772842407,159.15653425645743L199.57801452827454,159.15650295096103L199.9957165260315,159.1584247876817L200.6547574558258,159.15663838507626L200.80327372169495,159.157647075934L200.9982013206482,159.1589215142886L201.06317718696593,159.15894563974334L201.4344678516388,159.15904760662917L202.00996838188172,159.1591865180463L202.02853291511536,159.1591867424548L202.73398517799376,159.1591610322439L202.9196305103302,159.15934831964225L203.23522757530213,159.1593454676988L203.38374384117128,159.15946437433604L203.4858487739563,159.15826438143296L204.03350250434875,159.1567359476885L204.04278477096557,159.15907364058532L204.07991383743285,159.1590693063107L204.20058330345154,159.15932929536262L204.33981730270386,159.15954919507644L204.90603556632996,159.15971685342464L205.45368929672242,159.15978532116978L207.09665048789978,159.16010522805556L207.291578086853,159.16015098499432L207.57004608535766,159.1601695182517L207.86707861709593,159.1602440807971L207.95061901664735,159.16025507089316L208.12698208236694,159.1602465871206L208.29406288146973,159.1598661547996L208.70248261260986,159.16038660385243L208.78602301216125,159.16029388197796L208.97166834449766,159.0973969971038L209.17587821006774,159.14726473669236L209.38937034225464,159.15836882092958L209.54716887474058,159.1603897522621L209.57501567459107,159.16046297144487L209.60286247444154,159.16046348794464L209.9463063392639,159.16054358143825L210.20620980453492,159.16058380356853L210.37329060363768,159.16061005215388L210.39185513687133,159.1606127558642L211.1622832660675,159.16072339876243L211.26438819885254,159.16072081291802L211.5150093975067,159.16076547895366L211.75634832954407,159.1608086536509L211.98840499496458,159.16083459135845L212.01625179481505,159.16083028024525L213.00017205619812,159.16097268389055L213.0373011226654,159.1609816010391L213.1765351219177,159.15630464644497L213.19509965515135,159.15313762785206L213.2415109882355,159.1347658230734L213.29720458793642,159.11300382805075L213.41787405395507,159.15238784003276L213.49213218688968,159.15698859353938L213.82629378509523,159.16107733183998L213.97481005096435,159.16100743246145L214.6895445804596,159.16118008055258L214.89375444602967,159.15364495261218L214.91231897926332,159.14521105948015L215.02370617866515,159.07330138662448L215.09796431159972,159.1479203789816L215.15365791130066,159.14370956504618L215.394996843338,159.1598596405202L215.43212590980528,159.1603938978998L215.654900308609,159.16126846454955L215.75700524139407,159.1612350876497L215.9704973735809,159.16127160909897L216.0818845729828,159.16128201887267L216.37891710472107,159.16136302415438L217.11221616744993,159.1614376669927L217.38140189933776,159.16144613815516L217.4835068321228,159.16150633624224L217.80838616371156,159.16153463847394L217.91049109649657,159.16154953101272L218.89441135787965,159.14561564942454L218.9129758911133,159.14387184942913L218.99651629066466,159.15489143358297L219.03364535713195,159.15984455985918L219.04292762374877,159.1576742653879L219.10790349006655,159.16125168795753L219.25641975593567,159.16160146561813L219.30283108901978,159.16151443064552L219.72981535339358,159.16170869632379L219.76694441986083,159.16173728215426L219.78550895309448,159.1617011366921L220.1475173511505,159.16177976792778L220.17536415100096,159.1617739039697L220.30531588363647,159.1617983871398L221.02933267974853,159.1611674053342L221.0943085460663,159.16110051102186L221.33564747810362,159.09669054276617L223.35918160057068,159.16202691294026L223.58195599937437,159.16207489826542L223.82329493141174,159.16195582731075L223.83257719802856,159.1619073094015L224.03678706359864,159.16198098473566L224.12960972976683,159.1621139149722L224.27812599563597,159.16212938474516L224.49161812782287,159.16214429941598L224.900037858963,159.16214995003156L225.30845759010316,159.16215354326928L225.40128025627138,159.16222557980393L225.419844789505,159.16221208068222L225.48482065582274,159.16221497560298L225.62405465507507,159.16019176402818L226.2830955848694,159.16211865161225L226.30166011810303,159.1622729373258L226.6451039829254,159.16230084182436L227.09065278053285,159.16234533749486L227.2855803794861,159.16235672107777L227.5454838447571,159.16237597182467L227.61974197769166,159.16217817570185L227.71256464385985,159.16218891411046L228.0374439754486,159.1616776239857L228.38088784027101,159.15091927805665L228.76146077156068,159.1621398084157L228.89141250419615,159.16241388926449L229.2905499687195,159.16246754965343L229.79179236602783,159.1625058141286L230.01456676483153,159.16252478873983L230.02384903144835,159.16251049724002L231.32336635780334,159.162544981642L231.57398755645752,159.16261206433393L231.89886688804626,159.16261882206564L231.9545604877472,159.1626374856704L231.99168955421447,159.16261857603982L232.54862555122375,159.16266047750207L232.5950368843079,159.16266887557734L232.71570635032654,159.16265795741037L232.92919848251344,159.16252750917783L233.04058568191527,159.16253604635034L233.7460379447937,159.0908622677164L234.11732860946654,159.16158126834105L234.48861927413938,159.16271665090557L234.822780872345,159.16275709126796L235.02699073791504,159.16277300921448L235.11981340408326,159.1627854032789L235.41684593582156,159.16278756205236L235.56536220169068,159.1628053438502L235.82526566696166,159.16281770085635L235.83454793357848,159.1628082441753L236.69779872894287,159.16285877391164L237.05052486038207,159.1628696313442L237.52392045783995,159.16290214959855L237.5424849910736,159.16290950360826L237.87664658927918,159.1628593764947L238.04372738838197,159.16291584430564L238.07157418823243,159.16284629106175L238.7213328514099,159.16293681710448L239.15759938240052,159.16135722376157L239.44534964752197,159.16049562931116L239.64027724647522,159.1626327805556L240.12295511054992,159.16298227963577L240.65204430770874,159.16303529124744L240.8933832397461,159.16304582107452L241.58027096939088,159.16307976259844L241.71022270202636,159.1630855835792L241.988690700531,159.16303516945695L242.04438430023194,159.16308785912483L242.4620862979889,159.1630215426257L243.38103069305419,159.1631326915367L243.94724895668028,159.14862838873762L244.170023355484,159.1628678731347L244.22571695518494,159.16208758030356L244.64341895294191,159.163143912861L244.84762881851196,159.16317508324912L244.96829828453065,159.16318129507889L245.37671801567078,159.16319372459316L245.6923150806427,159.16321149815585L245.72944414710997,159.16320729802447L245.88724267959594,159.1632160711218L245.9058072128296,159.1632190199572L246.96398560714724,159.16324056767405L247.14963093948364,159.1632533684145L247.24245360565186,159.16325593959L247.4745102710724,159.16325644026278L247.8736477355957,159.16325319129393L248.0035994682312,159.1632764027088L248.37489013290406,159.16329325373906L248.45843053245545,159.1632940971366L248.89469706344605,159.1633049651205L248.93182612991333,159.16330951569708L249.02464879608155,159.16329810354839L249.12675372886656,159.16329753204022L249.16388279533388,159.1633136348278L249.19172959518434,159.1633124326855L249.2659877281189,159.16331772899565L249.46091532707214,159.16331141673535L249.5258911933899,159.16329684408157L249.72081879234315,159.1632569371397L250.04569812393188,159.16333558111415L250.2313434562683,159.16330459550275L250.24990798950193,159.16330617659168L250.4077065219879,159.1633059066324L250.53765825462344,159.16328052955998L251.11315878486636,159.0214260620884L251.1317233181,158.7889868475915L251.26167505073548,159.1601745198327L251.6608125152588,159.16242946326386L251.753635181427,159.16334876189498L252.14349037933349,159.16338056401096L252.23631304550173,159.16338159997L252.35698251152039,159.1633903001732L252.9324830417633,159.1634075894691L253.15525744056703,159.1634119839634L254.3155407676697,159.16344028799656L254.74252503204343,159.16344529575392L254.95601716423033,159.16345811039125L256.3019458236694,159.16346519785154L256.64538968849183,159.16348513353321L256.7567768878937,159.16349861901546L256.99811581993106,159.16316264935992L257.14663208580015,159.16314530762912L257.1651966190338,159.16314473702167L257.23945475196837,159.16279362108108L257.258019285202,159.16285819590541L257.6478744831085,159.09396047165748L258.17696368026736,159.1633044577566L258.31619767951963,159.1635042250453L258.32547994613645,159.16349656665588L258.817440076828,159.1635307911352L259.0402144756317,159.16353326477534L259.13303714179995,159.16353669137948L259.2444243412018,159.16353943176208L259.2722711410523,159.16353507297492L259.8106426048279,159.16354374544875L260.4232722015381,159.16356414728625L260.50681260108945,159.16356076462452L260.80384513282775,159.16356712803295L260.88738553237914,159.16357201010746L260.9616436653137,159.16357709790043L261.0359017982483,159.16356916508028L261.2122648639679,159.16357824210698L261.32365206336976,159.1635745124099L261.3422165966034,159.16357999581285L261.6021200618744,159.16348816716518L262.07551565933227,159.16359883708503L262.3447013912201,159.16359761033374L262.36326592445374,159.16357889342552L262.59532258987423,159.16359352308214L262.71599205589297,159.16336185189587L262.7345565891266,159.16317360509984L262.81809698867795,159.16213671572214L263.4028797855377,159.16221205842152L263.8112995166779,159.1635912589564L263.857710849762,159.16362348492643L264.46105817985534,159.16361412655274L265.0087119102478,159.16364932451964L265.2871799087524,159.1636441271924L265.3521557750702,159.16364159680677L265.3985671081543,159.16365380551542L265.4449784412384,159.16365457129004L265.5378011074066,159.1636376714921L265.6677528400421,159.16362337963847" fill="none"></path></g></g></g></g></g></g><g transform="translate(51, 176)" clip-path="url(#clip_1)"><clipPath id="clip_1"><rect width="278" height="23"></rect></clipPath><g><g><line x1="0" y1="0" x2="0" y2="5" style="visibility: inherit;" fill="rgb(0, 0, 0)" stroke="rgb(204, 204, 204)" stroke-width="1px"></line><line x1="18.564533233642578" y1="0" x2="18.564533233642578" y2="5" style="visibility: inherit;" fill="rgb(0, 0, 0)" stroke="rgb(204, 204, 204)" stroke-width="1px"></line><line x1="37.129066467285156" y1="0" x2="37.129066467285156" y2="5" style="visibility: inherit;" fill="rgb(0, 0, 0)" stroke="rgb(204, 204, 204)" stroke-width="1px"></line><line x1="55.693599700927734" y1="0" x2="55.693599700927734" y2="5" style="visibility: inherit;" fill="rgb(0, 0, 0)" stroke="rgb(204, 204, 204)" stroke-width="1px"></line><line x1="74.25813293457031" y1="0" x2="74.25813293457031" y2="5" style="visibility: inherit;" fill="rgb(0, 0, 0)" stroke="rgb(204, 204, 204)" stroke-width="1px"></line><line x1="92.82266616821289" y1="0" x2="92.82266616821289" y2="5" style="visibility: inherit;" fill="rgb(0, 0, 0)" stroke="rgb(204, 204, 204)" stroke-width="1px"></line><line x1="111.38719940185547" y1="0" x2="111.38719940185547" y2="5" style="visibility: inherit;" fill="rgb(0, 0, 0)" stroke="rgb(204, 204, 204)" stroke-width="1px"></line><line x1="129.95173263549805" y1="0" x2="129.95173263549805" y2="5" style="visibility: inherit;" fill="rgb(0, 0, 0)" stroke="rgb(204, 204, 204)" stroke-width="1px"></line><line x1="148.51626586914062" y1="0" x2="148.51626586914062" y2="5" style="visibility: inherit;" fill="rgb(0, 0, 0)" stroke="rgb(204, 204, 204)" stroke-width="1px"></line><line x1="167.0807991027832" y1="0" x2="167.0807991027832" y2="5" style="visibility: inherit;" fill="rgb(0, 0, 0)" stroke="rgb(204, 204, 204)" stroke-width="1px"></line><line x1="185.64533233642578" y1="0" x2="185.64533233642578" y2="5" style="visibility: inherit;" fill="rgb(0, 0, 0)" stroke="rgb(204, 204, 204)" stroke-width="1px"></line><line x1="204.20986557006833" y1="0" x2="204.20986557006833" y2="5" style="visibility: inherit;" fill="rgb(0, 0, 0)" stroke="rgb(204, 204, 204)" stroke-width="1px"></line><line x1="222.77439880371094" y1="0" x2="222.77439880371094" y2="5" style="visibility: inherit;" fill="rgb(0, 0, 0)" stroke="rgb(204, 204, 204)" stroke-width="1px"></line><line x1="241.33893203735352" y1="0" x2="241.33893203735352" y2="5" style="visibility: inherit;" fill="rgb(0, 0, 0)" stroke="rgb(204, 204, 204)" stroke-width="1px"></line><line x1="259.9034652709961" y1="0" x2="259.9034652709961" y2="5" style="visibility: inherit;" fill="rgb(0, 0, 0)" stroke="rgb(204, 204, 204)" stroke-width="1px"></line><line x1="278.4679985046387" y1="0" x2="278.4679985046387" y2="5" style="visibility: inherit;" fill="rgb(0, 0, 0)" stroke="rgb(204, 204, 204)" stroke-width="1px"></line></g><g transform="translate(0, 8)"><text style="text-anchor: middle; visibility: hidden; font-family: Roboto, sans-serif; font-size: 12px; font-weight: 200;" x="0" y="0" dx="0em" dy="0.95em" fill="rgb(255, 255, 255)" stroke="none" stroke-width="1px">-2k</text><text style="text-anchor: middle; visibility: inherit; font-family: Roboto, sans-serif; font-size: 12px; font-weight: 200;" x="18.564533233642578" y="0" dx="0em" dy="0.95em" fill="rgb(255, 255, 255)" stroke="none" stroke-width="1px">0</text><text style="text-anchor: middle; visibility: hidden; font-family: Roboto, sans-serif; font-size: 12px; font-weight: 200;" x="37.129066467285156" y="0" dx="0em" dy="0.95em" fill="rgb(255, 255, 255)" stroke="none" stroke-width="1px">2k</text><text style="text-anchor: middle; visibility: inherit; font-family: Roboto, sans-serif; font-size: 12px; font-weight: 200;" x="55.693599700927734" y="0" dx="0em" dy="0.95em" fill="rgb(255, 255, 255)" stroke="none" stroke-width="1px">4k</text><text style="text-anchor: middle; visibility: hidden; font-family: Roboto, sans-serif; font-size: 12px; font-weight: 200;" x="74.25813293457031" y="0" dx="0em" dy="0.95em" fill="rgb(255, 255, 255)" stroke="none" stroke-width="1px">6k</text><text style="text-anchor: middle; visibility: inherit; font-family: Roboto, sans-serif; font-size: 12px; font-weight: 200;" x="92.82266616821289" y="0" dx="0em" dy="0.95em" fill="rgb(255, 255, 255)" stroke="none" stroke-width="1px">8k</text><text style="text-anchor: middle; visibility: hidden; font-family: Roboto, sans-serif; font-size: 12px; font-weight: 200;" x="111.38719940185547" y="0" dx="0em" dy="0.95em" fill="rgb(255, 255, 255)" stroke="none" stroke-width="1px">10k</text><text style="text-anchor: middle; visibility: inherit; font-family: Roboto, sans-serif; font-size: 12px; font-weight: 200;" x="129.95173263549805" y="0" dx="0em" dy="0.95em" fill="rgb(255, 255, 255)" stroke="none" stroke-width="1px">12k</text><text style="text-anchor: middle; visibility: hidden; font-family: Roboto, sans-serif; font-size: 12px; font-weight: 200;" x="148.51626586914062" y="0" dx="0em" dy="0.95em" fill="rgb(255, 255, 255)" stroke="none" stroke-width="1px">14k</text><text style="text-anchor: middle; visibility: inherit; font-family: Roboto, sans-serif; font-size: 12px; font-weight: 200;" x="167.0807991027832" y="0" dx="0em" dy="0.95em" fill="rgb(255, 255, 255)" stroke="none" stroke-width="1px">16k</text><text style="text-anchor: middle; visibility: hidden; font-family: Roboto, sans-serif; font-size: 12px; font-weight: 200;" x="185.64533233642578" y="0" dx="0em" dy="0.95em" fill="rgb(255, 255, 255)" stroke="none" stroke-width="1px">18k</text><text style="text-anchor: middle; visibility: inherit; font-family: Roboto, sans-serif; font-size: 12px; font-weight: 200;" x="204.20986557006833" y="0" dx="0em" dy="0.95em" fill="rgb(255, 255, 255)" stroke="none" stroke-width="1px">20k</text><text style="text-anchor: middle; visibility: hidden; font-family: Roboto, sans-serif; font-size: 12px; font-weight: 200;" x="222.77439880371094" y="0" dx="0em" dy="0.95em" fill="rgb(255, 255, 255)" stroke="none" stroke-width="1px">22k</text><text style="text-anchor: middle; visibility: inherit; font-family: Roboto, sans-serif; font-size: 12px; font-weight: 200;" x="241.33893203735352" y="0" dx="0em" dy="0.95em" fill="rgb(255, 255, 255)" stroke="none" stroke-width="1px">24k</text><text style="text-anchor: middle; visibility: hidden; font-family: Roboto, sans-serif; font-size: 12px; font-weight: 200;" x="259.9034652709961" y="0" dx="0em" dy="0.95em" fill="rgb(255, 255, 255)" stroke="none" stroke-width="1px">26k</text><text style="text-anchor: middle; visibility: hidden; font-family: Roboto, sans-serif; font-size: 12px; font-weight: 200;" x="278.4679985046387" y="0" dx="0em" dy="0.95em" fill="rgb(255, 255, 255)" stroke="none" stroke-width="1px">28k</text></g><line x1="0" y1="0" x2="278.4679985046387" y2="0" fill="rgb(0, 0, 0)" stroke="rgb(204, 204, 204)" stroke-width="1px"></line></g></g></g></g></svg>