<svg viewBox="0 0 1230.050048828125 400" xmlns="http://www.w3.org/2000/svg"><g><g><g><g><g><line x1="51.53200149536133" y1="376.8489990234375" x2="46.53200149536133" y2="376.8489990234375" style="visibility: inherit;" fill="rgb(0, 0, 0)" stroke="rgb(204, 204, 204)" stroke-width="1px"></line><line x1="51.53200149536133" y1="334.9768880208333" x2="46.53200149536133" y2="334.9768880208333" style="visibility: inherit;" fill="rgb(0, 0, 0)" stroke="rgb(204, 204, 204)" stroke-width="1px"></line><line x1="51.53200149536133" y1="293.1047770182292" x2="46.53200149536133" y2="293.1047770182292" style="visibility: inherit;" fill="rgb(0, 0, 0)" stroke="rgb(204, 204, 204)" stroke-width="1px"></line><line x1="51.53200149536133" y1="251.23266601562503" x2="46.53200149536133" y2="251.23266601562503" style="visibility: inherit;" fill="rgb(0, 0, 0)" stroke="rgb(204, 204, 204)" stroke-width="1px"></line><line x1="51.53200149536133" y1="209.36055501302084" x2="46.53200149536133" y2="209.36055501302084" style="visibility: inherit;" fill="rgb(0, 0, 0)" stroke="rgb(204, 204, 204)" stroke-width="1px"></line><line x1="51.53200149536133" y1="167.48844401041666" x2="46.53200149536133" y2="167.48844401041666" style="visibility: inherit;" fill="rgb(0, 0, 0)" stroke="rgb(204, 204, 204)" stroke-width="1px"></line><line x1="51.53200149536133" y1="125.61633300781251" x2="46.53200149536133" y2="125.61633300781251" style="visibility: inherit;" fill="rgb(0, 0, 0)" stroke="rgb(204, 204, 204)" stroke-width="1px"></line><line x1="51.53200149536133" y1="83.74422200520833" x2="46.53200149536133" y2="83.74422200520833" style="visibility: inherit;" fill="rgb(0, 0, 0)" stroke="rgb(204, 204, 204)" stroke-width="1px"></line><line x1="51.53200149536133" y1="41.872111002604186" x2="46.53200149536133" y2="41.872111002604186" style="visibility: inherit;" fill="rgb(0, 0, 0)" stroke="rgb(204, 204, 204)" stroke-width="1px"></line><line x1="51.53200149536133" y1="0" x2="46.53200149536133" y2="0" style="visibility: inherit;" fill="rgb(0, 0, 0)" stroke="rgb(204, 204, 204)" stroke-width="1px"></line></g><g transform="translate(41.53200149536133, 0)"><text style="text-anchor: end; visibility: hidden; font-family: Roboto, sans-serif; font-size: 12px; font-weight: 200;" x="0" y="376.8489990234375" dx="0em" dy="0.3em" fill="rgb(255, 255, 255)" stroke="none" stroke-width="1px">100</text><text style="text-anchor: end; visibility: inherit; font-family: Roboto, sans-serif; font-size: 12px; font-weight: 200;" x="0" y="334.9768880208333" dx="0em" dy="0.3em" fill="rgb(255, 255, 255)" stroke="none" stroke-width="1px">200</text><text style="text-anchor: end; visibility: inherit; font-family: Roboto, sans-serif; font-size: 12px; font-weight: 200;" x="0" y="293.1047770182292" dx="0em" dy="0.3em" fill="rgb(255, 255, 255)" stroke="none" stroke-width="1px">300</text><text style="text-anchor: end; visibility: inherit; font-family: Roboto, sans-serif; font-size: 12px; font-weight: 200;" x="0" y="251.23266601562503" dx="0em" dy="0.3em" fill="rgb(255, 255, 255)" stroke="none" stroke-width="1px">400</text><text style="text-anchor: end; visibility: inherit; font-family: Roboto, sans-serif; font-size: 12px; font-weight: 200;" x="0" y="209.36055501302084" dx="0em" dy="0.3em" fill="rgb(255, 255, 255)" stroke="none" stroke-width="1px">500</text><text style="text-anchor: end; visibility: inherit; font-family: Roboto, sans-serif; font-size: 12px; font-weight: 200;" x="0" y="167.48844401041666" dx="0em" dy="0.3em" fill="rgb(255, 255, 255)" stroke="none" stroke-width="1px">600</text><text style="text-anchor: end; visibility: inherit; font-family: Roboto, sans-serif; font-size: 12px; font-weight: 200;" x="0" y="125.61633300781251" dx="0em" dy="0.3em" fill="rgb(255, 255, 255)" stroke="none" stroke-width="1px">700</text><text style="text-anchor: end; visibility: inherit; font-family: Roboto, sans-serif; font-size: 12px; font-weight: 200;" x="0" y="83.74422200520833" dx="0em" dy="0.3em" fill="rgb(255, 255, 255)" stroke="none" stroke-width="1px">800</text><text style="text-anchor: end; visibility: inherit; font-family: Roboto, sans-serif; font-size: 12px; font-weight: 200;" x="0" y="41.872111002604186" dx="0em" dy="0.3em" fill="rgb(255, 255, 255)" stroke="none" stroke-width="1px">900</text><text style="text-anchor: end; visibility: hidden; font-family: Roboto, sans-serif; font-size: 12px; font-weight: 200;" x="0" y="0" dx="0em" dy="0.3em" fill="rgb(255, 255, 255)" stroke="none" stroke-width="1px">1e+3</text></g><line x1="51.53200149536133" y1="0" x2="51.53200149536133" y2="376.8489990234375" fill="rgb(0, 0, 0)" stroke="rgb(204, 204, 204)" stroke-width="1px"></line></g></g><g transform="translate(51, 0)" clip-path="url(#clip_0)"><clipPath id="clip_0"><rect width="1178" height="376"></rect></clipPath><g><g><g><line x1="0" y1="0" x2="0" y2="376.8489990234375" fill="rgb(0, 0, 0)" stroke="rgb(189, 189, 189)" stroke-width="1px" opacity="0.25"></line><line x1="78.56786656697591" y1="0" x2="78.56786656697591" y2="376.8489990234375" fill="rgb(0, 0, 0)" stroke="rgb(189, 189, 189)" stroke-width="1px" opacity="0.25"></line><line x1="157.13573313395182" y1="0" x2="157.13573313395182" y2="376.8489990234375" fill="rgb(0, 0, 0)" stroke="rgb(189, 189, 189)" stroke-width="1px" opacity="0.25"></line><line x1="235.70359970092773" y1="0" x2="235.70359970092773" y2="376.8489990234375" fill="rgb(0, 0, 0)" stroke="rgb(189, 189, 189)" stroke-width="1px" opacity="0.25"></line><line x1="314.27146626790363" y1="0" x2="314.27146626790363" y2="376.8489990234375" fill="rgb(0, 0, 0)" stroke="rgb(189, 189, 189)" stroke-width="1px" opacity="0.25"></line><line x1="392.83933283487954" y1="0" x2="392.83933283487954" y2="376.8489990234375" fill="rgb(0, 0, 0)" stroke="rgb(189, 189, 189)" stroke-width="1px" opacity="0.25"></line><line x1="471.40719940185545" y1="0" x2="471.40719940185545" y2="376.8489990234375" fill="rgb(0, 0, 0)" stroke="rgb(189, 189, 189)" stroke-width="1px" opacity="0.25"></line><line x1="549.9750659688314" y1="0" x2="549.9750659688314" y2="376.8489990234375" fill="rgb(0, 0, 0)" stroke="rgb(189, 189, 189)" stroke-width="1px" opacity="0.25"></line><line x1="628.5429325358073" y1="0" x2="628.5429325358073" y2="376.8489990234375" fill="rgb(0, 0, 0)" stroke="rgb(189, 189, 189)" stroke-width="1px" opacity="0.25"></line><line x1="707.1107991027832" y1="0" x2="707.1107991027832" y2="376.8489990234375" fill="rgb(0, 0, 0)" stroke="rgb(189, 189, 189)" stroke-width="1px" opacity="0.25"></line><line x1="785.6786656697591" y1="0" x2="785.6786656697591" y2="376.8489990234375" fill="rgb(0, 0, 0)" stroke="rgb(189, 189, 189)" stroke-width="1px" opacity="0.25"></line><line x1="864.2465322367349" y1="0" x2="864.2465322367349" y2="376.8489990234375" fill="rgb(0, 0, 0)" stroke="rgb(189, 189, 189)" stroke-width="1px" opacity="0.25"></line><line x1="942.8143988037109" y1="0" x2="942.8143988037109" y2="376.8489990234375" fill="rgb(0, 0, 0)" stroke="rgb(189, 189, 189)" stroke-width="1px" opacity="0.25"></line><line x1="1021.3822653706868" y1="0" x2="1021.3822653706868" y2="376.8489990234375" fill="rgb(0, 0, 0)" stroke="rgb(189, 189, 189)" stroke-width="1px" opacity="0.25"></line><line x1="1099.9501319376627" y1="0" x2="1099.9501319376627" y2="376.8489990234375" fill="rgb(0, 0, 0)" stroke="rgb(189, 189, 189)" stroke-width="1px" opacity="0.25"></line><line x1="1178.5179985046386" y1="0" x2="1178.5179985046386" y2="376.8489990234375" fill="rgb(0, 0, 0)" stroke="rgb(189, 189, 189)" stroke-width="1px" opacity="0.25"></line></g><g><line x1="0" y1="376.8489990234375" x2="1178.5179985046386" y2="376.8489990234375" fill="rgb(0, 0, 0)" stroke="rgb(189, 189, 189)" stroke-width="1px" opacity="0.25"></line><line x1="0" y1="334.9768880208333" x2="1178.5179985046386" y2="334.9768880208333" fill="rgb(0, 0, 0)" stroke="rgb(189, 189, 189)" stroke-width="1px" opacity="0.25"></line><line x1="0" y1="293.1047770182292" x2="1178.5179985046386" y2="293.1047770182292" fill="rgb(0, 0, 0)" stroke="rgb(189, 189, 189)" stroke-width="1px" opacity="0.25"></line><line x1="0" y1="251.23266601562503" x2="1178.5179985046386" y2="251.23266601562503" fill="rgb(0, 0, 0)" stroke="rgb(189, 189, 189)" stroke-width="1px" opacity="0.25"></line><line x1="0" y1="209.36055501302084" x2="1178.5179985046386" y2="209.36055501302084" fill="rgb(0, 0, 0)" stroke="rgb(189, 189, 189)" stroke-width="1px" opacity="0.25"></line><line x1="0" y1="167.48844401041666" x2="1178.5179985046386" y2="167.48844401041666" fill="rgb(0, 0, 0)" stroke="rgb(189, 189, 189)" stroke-width="1px" opacity="0.25"></line><line x1="0" y1="125.61633300781251" x2="1178.5179985046386" y2="125.61633300781251" fill="rgb(0, 0, 0)" stroke="rgb(189, 189, 189)" stroke-width="1px" opacity="0.25"></line><line x1="0" y1="83.74422200520833" x2="1178.5179985046386" y2="83.74422200520833" fill="rgb(0, 0, 0)" stroke="rgb(189, 189, 189)" stroke-width="1px" opacity="0.25"></line><line x1="0" y1="41.872111002604186" x2="1178.5179985046386" y2="41.872111002604186" fill="rgb(0, 0, 0)" stroke="rgb(189, 189, 189)" stroke-width="1px" opacity="0.25"></line><line x1="0" y1="0" x2="1178.5179985046386" y2="0" fill="rgb(0, 0, 0)" stroke="rgb(189, 189, 189)" stroke-width="1px" opacity="0.25"></line></g></g></g><g><g><line x1="0" y1="418.7211100260417" x2="1178.5179985046386" y2="418.7211100260417" fill="rgb(0, 0, 0)" stroke="rgb(153, 153, 153)" stroke-width="1.5px"></line></g></g><g><g><line x1="78.56786656697591" y1="0" x2="78.56786656697591" y2="376.8489990234375" fill="rgb(0, 0, 0)" stroke="rgb(153, 153, 153)" stroke-width="1.5px"></line></g></g><g><g><g><g><g><path style="fill: none;" stroke="rgb(204, 51, 17)" stroke-width="2px" d="M79.2749773660787,48.15292765299479L80.41421143129983,48.15292765299479L81.00347043055216,48.152927652994826L81.04275436383566,48.15292765299487L82.06413662920635,48.15292765299479L82.61411169517517,48.152927652994826L82.77124742830911,48.15292765299487L83.59621002726237,48.15292765299487L85.01043162546793,48.152927652994826L85.32470309173584,48.321434996474025L88.15314628814697,48.253786632810545L88.7424052873993,48.884770331094586L89.64593575291951,48.59165042491417L91.09944128440856,48.4160236877219L93.73146481440226,48.31073576903268L94.36000774693805,48.247594709830764L94.87069887962342,48.3772382754316L95.73494541186015,49.96255947171307L96.8348955437978,50.91364913990524L97.2277348766327,51.48426584789613L97.46343847633361,51.82662252030123L98.60267254155477,52.032031717113625L99.50620300707499,71.41659867855215L99.70262267349243,83.04724088004922L99.7811905400594,90.02559093017972L100.4097334725952,94.21258826286025L101.98109080393473,128.2126417929018L103.59173206855775,117.12480482926452L103.82743566825866,109.80215298593811L103.86671960154214,105.40856360671323L104.41669466751098,102.77241060081542L105.08452153333029,101.19071902106609L108.5807915955607,80.14308991278227L109.01291486167908,67.51451309105406L110.15214892690022,59.93736722958424L112.23419739092509,56.563498916232284L112.58775279047647,54.53917795049274L113.37343145614624,53.324585379066896L115.57333172002156,52.59582983909781L118.44105884971619,52.32606496038972L118.87318211583454,52.16420603339566L119.3053053819529,52.06709067728234L120.05170011433918,52.00882146364424L120.6409591135915,51.97385993547213L122.21231644493102,51.952883018572706L122.76229151089986,51.940296868434515L123.03727904388428,51.932745178352135L123.82295770955403,51.92821416430284L124.29436490895588,51.92549555587331L124.76577210835774,51.92386439081561L125.08004357462565,51.92288569178107L126.41569730626424,51.922298472360275L127.75135103790282,51.92194614070783L127.8299189044698,51.921734741716364L128.34061003715513,51.92160790232151L128.4977457702891,51.921531798684576L131.40475683326721,51.921486136502445L132.62255876505535,51.92145873919307L134.23320002967833,52.2564191888284L135.80455736101786,52.457395458609554L135.84384129430134,52.57798122047831L137.2580628925069,52.48284423358908L137.88660582504272,52.42576204145551L138.00445762489318,52.39151272617538L139.37939528981528,52.20347469299694L139.4972470896657,52.09065187308979L140.04722215563456,52.02295818114559L141.2650240874227,51.98234196597902L142.4828260192108,51.9579722368791L142.79709748547873,51.943350399419124L144.1720351504008,56.45676528522438L144.7612941496531,59.6672795487388L145.4291210154724,61.59358810684742L145.5076888820394,62.74937324171264L145.78267641502381,63.610332766642166L148.37541601173402,64.12690848159986L151.12529134157816,64.60434235458494L151.63598247426353,64.89080267837596L153.16805587231954,65.0626788726506L153.56089520515442,65.1658045892154L154.77869713694253,65.22768001915425L155.56437580261232,65.26480527711755L155.6036597358958,65.28708043189553L156.31077053499857,59.94081531642899L159.88560846379596,56.90054469115947L160.2391638633474,55.07638231599774L160.63200319618224,53.98188489090071L161.0641264623006,53.32518643584252L165.34607519020082,51.423771366713844L169.66730785138446,51.790318321330396L171.23866518272402,52.01024649410035L174.26352804555256,52.47718028578312L174.45994771197,52.75734056079277L174.97063884465535,52.92543672579854L175.28491031092324,53.026294424802046L175.40276211077372,53.08680904420415L176.18844077644346,53.1231178158454L176.89555157554628,53.14490307883014L177.44552664151507,53.157974236621L177.95621777420044,53.165816931295495L179.80256263852436,53.17052254810021L179.84184657180788,53.17334591818303L180.6668091707611,53.17503994023273L181.76675930269877,53.17605635346257L182.08103076896666,53.17666620140042L182.39530223523457,53.177032110163175L184.00594349985758,53.177251655420825L184.35949889940898,53.17738338257542L184.94875789866128,53.17746241886819L185.30231329821268,53.17750984064384L186.2058437637329,53.5125151817301L186.71653489641827,53.71351838638186L186.75581882970175,53.83412030917284L186.79510276298524,53.90648146284743L187.30579389567058,53.94989815505218L187.97362076148985,53.97594817037509L189.03428696014402,53.99157817956883L190.29137282521566,54.00095618508503L190.95919969103494,54.006582988394754L194.92687695266721,54.00995907038055L195.3590002187856,54.01198471957206L199.68023287996925,58.03292276533703L199.71951681325274,60.445485592795954L200.5051954789225,61.893023289271305L200.544479412206,62.76154590715653L201.13373841145832,63.2826594778877L202.11583674354554,63.59532762032637L204.2371691408539,63.7829285057896L204.94427993995666,63.89548903706751L205.88709433876036,63.96302535583429L206.82990873756407,64.00354714709432L206.94776053741455,64.02786022185036L210.40474666636146,64.54491339873525L212.2903754639689,64.85514530486617L214.5295596611277,65.04128444854466L215.39380619336444,65.3204563787622L215.70807765963235,65.48795953689272L216.06163305918372,65.58846143177104L217.08301532455445,65.64876256869802L218.65437265589395,65.68494325085423L218.77222445574444,65.70665166014791L219.99002638753257,65.71967670572414L220.61856932006836,65.7274917330699L222.1113587848409,65.7321807494774L222.22921058469134,65.73499415932181L222.3863463178253,65.73668220522853L222.66133385080974,65.73769503277249L222.7791856506602,65.73830272929892L223.52558038304647,65.73866734721476L224.3898269152832,65.73888611796426L226.3147396461741,65.73901738041396L227.13970224512735,65.73909613788379L229.73244184183753,65.73914339236566L229.81100970840453,65.73917174505476L231.8537742391459,65.73918875666827L232.36446537183124,65.7391989636364L232.60016897153218,65.73920508781721L233.07157617093404,65.73920876232575L234.7215013688405,65.73921096703084L236.17500690032958,65.73921228985391L236.60713016644797,65.7392130835478L237.54994456525168,65.73921355976405L239.00345009674072,65.73921384549384L239.9855484288279,65.7392140169317L240.4569556282298,65.73921411979443L240.57480742808022,65.73921418151208L241.43905396031698,65.73921421854267L242.81399162523905,65.73921424076099L243.24611489135742,65.73921425409199L244.6210525562795,65.73921426209063L245.79957055478414,65.73921426688977L248.19589048507692,65.73921426976928L248.58872981791177,65.739214271497L253.53850541163126,65.73921427253359L256.7205040075938,65.73921427315557L256.8776397407277,65.73921427352873L257.85973807281493,65.73921427375265L259.74536687042234,65.73921427388699L261.1988724019114,65.73921427396762L262.80951366653443,65.73921427401598L262.8880815331014,65.73921427404501L263.1237851328023,65.73921427406246L263.4773405323537,65.73921427407288L264.3808709978739,65.73921427407912L266.22721586219785,65.73921427408288L268.3878321927897,65.7392142740851L268.5056839926402,65.73921427408644L268.54496792592363,65.73921427408732L268.85923939219157,65.73921427408777L270.35202885696407,65.73921427408807L271.45197898890177,65.73921427408827L272.198373721288,65.73921427408835L272.9840523869578,65.73921427408844L274.2018543187459,65.73921427408844L278.0909637138112,65.73921427408844L278.4445191133626,65.73921427408844L278.5230869799296,65.73921427408844L280.1730121778361,65.73921427408844L280.33014791097,65.73921427408844L280.9194069102224,65.73921427408844L281.0765426433563,65.73921427408844L282.3336285084279,65.73921427408844L282.84431964111326,65.73921427408844L283.8264179732005,65.73921427408844L284.3371091058858,65.73921427408844L284.9263681051381,65.73921427408844L285.2799235046895,65.73921427408844L285.39777530454,65.73921427408844L286.5762933030446,65.06926049804682L287.5191077018483,64.66728823242187L287.6369595016988,64.42610487304688L289.20831683303834,64.2813948574219L289.5225882993062,64.19456884804691L290.8189580976613,64.14247324242189L292.4688832955678,64.1112158790469L292.8224386951192,64.0924614610219L293.0188583615367,64.08120881020689L294.98305502571105,64.07445721971793L301.18991648450213,64.07040626542448L303.66480428136185,64.06797569284842L304.76475441329956,64.06651734930283L305.6682848788198,64.06564234317544L307.67176547627764,64.06511733949903L309.00741920791626,64.06480233729317L309.5181103406016,64.0646133359697L312.54297320343017,64.06449993517559L313.5250715355174,64.06443189469911L314.1536144680532,64.06439107041322L314.62502166745503,64.06436657584166L316.3535147319285,64.06435187909875L318.63198286237076,64.06434306105298L319.49622939460755,149.65093265954846L319.69264906102495,115.4162915293228L319.8497847941589,180.46210174051035L323.11035125668843,219.48958786722287L323.8174620557912,242.9060795432504L325.2316836539968,256.9559745488669L327.3137321180216,265.3859115522368L327.3922999845886,270.44387375425873L328.33511438339235,273.4786510754719L328.3743983166758,275.2995174681998L328.57081798309326,276.39203730383656L328.76723764951066,277.0475492052186L332.8527667109934,277.44085634604784L335.01338304158526,277.67684063054537L335.72049384068805,277.81843120124387L335.9169135071055,277.903385543663L336.42760463979084,277.95435814911446L336.6240243062083,277.9849417123853L337.2525672387441,278.00329185034786L337.4489869051615,278.01430193312535L337.8025423047129,278.02090798279187L338.43108523724874,278.02487161259177L340.70955336769106,278.0272497904717L342.55589823201495,278.0286766971997L342.9487375648498,278.0295328412365L343.7344162305196,278.5325118596898L345.777180761261,278.83429927076185L347.3485380926005,279.015371717405L347.6628095588684,279.1240151853909L348.0163649584198,279.18920126618247L348.6449078909556,279.2283129146574L350.25554915557865,279.2517799037423L350.3734009554291,279.2658600971933L350.80552422154744,279.2743082132639L353.20184415184025,279.27937708290625L353.39826381825765,279.28241840469167L353.4768316848246,279.2842431977629L355.67673194869997,279.28533807360566L358.1516197455597,279.2859949991113L358.2694715454101,279.2863891544147L358.5051751451111,279.28662564759674L359.9979646098836,279.28676754350596L360.54793967585243,279.28685268105147L361.6871737410736,279.2869037635788L363.49423467211403,279.2869344130952L364.31919727106725,279.286952802805L365.6548510027059,279.28696383663095L366.83336900121054,279.2869704569265L367.42262800046285,279.2869744291038L367.97260306643165,279.28697681241016L370.68319446299233,279.9569320184357L371.78314459493,280.35890514205096L371.9402803280639,280.6000890162202L372.0188481946309,280.7447993407217L372.4902553940328,280.83162553542263L373.43306979283653,280.88372125224316L373.9044769922383,280.9149786823355L374.45445205820715,280.93373314039087L374.8865753243255,280.94498581522413L375.27941465716043,280.95173742012406L376.8507719884999,280.95578838306403L377.20432738805135,280.958218960828L377.2828952546183,280.9596773074864L378.6185489862569,280.96055231548144L378.85425258595785,280.96107732027843L379.4827955184937,280.96139232315664L382.11481904848733,280.9615813248836L382.23267084833776,280.9616947259197L383.2540531137085,280.9617627665414L384.74684257848105,280.9618035909144L384.7861265117645,280.9618280855383L385.8075087771352,280.9618427823125L386.4753356429545,280.9618516003771L387.1431625087738,280.96185689121586L388.71451984011327,280.9618600657191L388.95022343981424,280.96186197042107L390.05017357175194,280.9618631132422L392.2893577689107,280.9618637989349L394.64639376592,280.96186421035054L395.90347963099157,280.9618644571999L397.63197269546504,280.96186460530953L398.49621922770183,280.9618646941753L399.28189789337154,280.96186474749476L400.38184802530924,280.96186477948646L401.32466242411294,280.9618647986814L401.8353535567982,280.96186481019845L403.72098235440575,280.9618648171087L404.27095742037454,280.9618648212548L404.467377086792,280.9618648237424L406.66727735066735,280.96186482523507L407.09940061678566,280.9618648261306L407.6493756827545,280.961864826668L408.4350543484243,280.9618648269904L408.9850294143931,280.96186482718383L412.1277440770721,280.9618648272999L414.366928274231,280.96186482736954L414.6026318739319,280.9618648274113L414.9561872734833,280.9618648274364L417.1168036040751,280.96186482745145L417.4703590036265,280.96186482746043L418.7274448686981,280.9618648274659L418.88458060183206,280.96186482746907L420.1023825336202,280.96186482747106L420.33808613332116,280.9618648274722L421.0451969324239,280.9618648274729L421.2809005321248,280.96186482747333L422.3808506640625,280.96186482747356L422.4594185306294,280.9618648274737L423.3236650628662,280.96186482747385L423.4022329294332,280.96186482747385L425.17000992719016,280.9618648274739L425.56284926002496,280.96186482747396L426.81993512509666,280.96186482747396L427.01635479151406,280.96186482747396L427.29134232449843,280.96186482747396L428.862699655838,280.45939949544265L429.01983538897196,280.15792029622395L431.53400711911513,279.9770327766927L432.3589697180684,279.86850026497393L433.4196359167226,279.80338075794265L434.40173424880976,279.76430905372393L436.87662204566954,279.7408660311927L438.0944239774577,279.72680021767394L440.4514599744669,279.71836072956273L442.0228173058064,279.71329703669596L443.5548907038625,279.7102588209759L444.0262979032644,279.7084358915439L444.10486576983135,279.70734213388465L444.3798533028157,279.7066858792891L444.969112302068,279.7062921265318L445.6762231011708,279.7060558748774L446.22619816713967,279.7059141238848L446.736889299825,279.70582907328924L446.9333089662424,279.70577804293185L447.3261482990773,279.70574742471746L450.036739695638,279.7057290537888L453.25802222488403,279.70571803123164L453.6115776244354,279.70571141769733L454.3579723568217,279.7057074495767L455.41863855547587,279.70570506870433L458.48278535158795,279.7057036401809L458.5220692848714,279.70570278306684L459.30774795054117,279.70570226879846L459.779155149943,279.7057019602374L460.09342661621093,279.7057017751008L461.7040678808339,279.70570166401876L461.7433518141174,279.7057015973696L462.4504626132202,279.7057015573801L464.0611038778432,279.7057015333864L464.4932271439616,279.70570151899017L465.0039182766469,279.70570151035247L465.51460940933225,279.70570150516977L466.1824362751516,279.7057015020602L467.2431024738058,279.70570150019444L467.6359418066406,279.705701499075L468.14663293932597,279.70570149840336L469.36443487111404,279.70570149800034L469.40371880439756,279.7057014977585L469.443002737681,279.70570149761346L469.8358420705159,279.70570149752643L470.34653320320126,279.70570149747414L470.5822368029022,279.7057014974428L471.132211868871,279.705701497424L473.8820871987152,279.70570149741275L474.9427533973694,279.705701497406L476.16055532915755,279.7057014974019L476.8283821949768,279.7057014973995L478.91043065900163,279.705701497398L479.5782575248209,279.7057014973971L479.8532450578054,279.7057014973966L481.97457745511366,279.7057014973963L482.4067007212321,279.70570149739615L484.8423045848083,279.705701497396L484.9601563846588,279.7057014973959L484.99944031794223,279.70570149739586L486.9243530488332,279.70570149739586L488.8885497130076,279.7057014973958L489.1242533127085,279.7057014973958L489.16353724599196,279.7057014973958L489.39924084569293,279.7057014973958L491.08844997688294,279.7057014973958L491.7562768427022,279.7057014973958L493.44548597389223,279.7057014973958L493.916893173294,279.7057014973958L494.82042363881425,279.7057014973958L496.2739291703033,279.7057014973958L496.6667685031382,279.7057014973958L496.74533636970517,279.7057014973958L499.18094023328143,279.7057014973958L499.5737795661163,279.7057014973958L499.8487670991007,279.7057014973958L501.69511196342467,279.7057014973958L504.48427122655227,279.7057014973958L509.7483182865397,275.8534672851562L511.5946631508636,273.5421267578125L511.7910828172811,272.1553224414062L512.105354283549,271.3232398515625L512.8124650826518,270.8239902976562L514.3838224139913,270.5244405653125L515.326636812795,270.3447107259062L515.5623404124959,270.2368728222625L515.6016243457794,270.1721700800762L516.937278077418,270.13334843476446L517.3694013435363,270.7800092236191L519.0193265414429,271.16800569693186L519.2550301411437,271.40080358091956L519.5693016074117,271.54048231131213L523.6548306688944,271.62428954954765L523.6941146021779,271.67457389248904L526.1690023990377,271.70474449825383L526.5618417318725,271.7228468617127L526.75826139829,271.73370827978806L528.0939151299285,271.74022513063323L528.290334796346,271.7441352411404L528.8010259290313,271.74648130744464L528.8795937955983,271.7478889472272L531.3544815924581,271.7487335310967L533.3972461231995,271.7492402814185L534.6936159215545,271.7495443316115L538.032750250651,271.7497267617273L539.6041075819905,277.10946642813013L540.3897862476604,280.32531022797184L540.7433416472117,282.25481650787685L541.568304246165,281.9051242797261L542.7861061779531,283.2027049389294L542.86467404452,283.9812533344514L543.021809777654,284.4483823717646L543.8467723766073,284.7286597941525L543.9646241764577,284.8968262475853L544.1217599095917,284.9977261196449L544.7503028421274,285.0582660428807L545.1038582416788,285.09458999682215L545.3395618413798,285.116384369187L548.2072889710744,285.12946099260597L548.8751158368937,285.1373069666573L551.0357321674855,285.14201455108815L552.9606448983765,285.14483910174664L556.8497542934417,285.1465338321417L557.0068900265758,285.1475506703788L559.206790290451,285.148160773321L560.6210118886567,285.1485268350864L561.8388138204448,285.1487464721456L561.9173816870117,285.1488782543811L562.3887888864135,285.1489573237224L563.881578351186,285.1490047653272L565.4529356825257,285.1490332302901L565.6100714156596,285.1490503092678L565.6886392822265,285.14906055665443L566.5136018811799,285.14906670508645L566.5528858144633,285.1490703941456L567.1421448137156,285.1490726075811L567.6135520131174,285.1490739356424L568.6742182117716,285.1490747324792L568.7527860783385,285.14907521058126L568.8313539449056,285.14907549744254L571.7383650078838,285.1490756695593L573.5847098722077,285.14907577282935L575.4310547365316,285.14907583479135L577.7880907335408,285.14907587196853L580.695101796519,298.3806629710978L581.0486571960703,306.3196152305754L585.369889857254,311.0829865862619L585.527025590388,313.9410093996738L586.1948524562073,315.65582308772093L587.059098988444,316.6847113005492L588.1590491203816,304.0704571514233L588.3161848535156,309.7334917387706L589.1411474524689,313.1313124911791L589.6518385851541,315.17000494262413L590.2018136511231,316.3932204134911L590.6732208505249,317.1271496960113L590.7125047838083,317.56750726552343L591.1446280499268,317.8317218072308L592.8731211144002,317.9902505322551L596.644378709615,318.08536776726976L598.1764521076711,318.1424381082785L599.0799825731913,318.1766803128838L599.5121058393097,318.19722563564693L601.2013149704997,318.2095528293048L602.9690919682566,318.21694914549954L604.5011653663126,318.2213869352164L605.6796833648173,318.2240496090465L607.1331888963064,318.2256472133446L609.7652124263,318.2266057759234L610.8651625582377,318.2271809134707L611.1794340245056,318.2275259959991L612.3579520230102,318.2277330455162L613.7328896879324,318.22785727522637L614.4792844203185,318.22793181305246L614.5578522868855,318.22797653574816L614.675704086736,318.2280033693656L615.1863952194213,318.228019469536L617.3862954832967,318.2280291296383L618.1719741489665,318.2280349256996L620.7647137456767,318.2280384033364L621.9039478108978,318.22804048991856L622.6110586100006,318.2280417418678L624.2216998746235,318.2280424930373L625.2430821399943,318.22804294373907L627.403698470586,318.2280432141601L627.7572538701374,318.2280433764127L628.7786361355081,318.2280434737643L630.3499934668478,318.2280435321752L632.5498937307229,318.22804356722185L632.9820169968415,318.22804358824976L633.5319920628102,318.22804360086656L634.0426831954957,318.22804360843656L634.7497939945983,318.22804361297864L635.4961887269847,318.2280436157038L635.928311993103,318.228043617339L636.1640155928038,318.2280436183201L636.6354227922058,318.2280436189087L637.303249658025,318.2280436192619L638.6781873229472,318.2280436194738L638.9531748559316,318.22804361960095L642.2530252517446,318.22804361967724L642.449444918162,318.228043619723L642.7244324511464,318.22804361975045L642.9601360508473,318.22804361976694L644.2172219159189,318.2280436197768L644.2565058492024,318.22804361978274L644.4529255156199,318.2280436197864L645.0029005815887,318.2280436197884L645.3171720478566,318.22804361978973L645.3564559811401,318.2280436197905L647.9491955778502,318.228043619791L648.0277634444172,318.22804361979126L649.5598368424734,318.22804361979144L651.2097620403798,318.22804361979155L653.0168229714203,318.2280436197916L653.8810695036569,318.2280436197916L657.8094628320058,318.2280436197916L658.3987218312581,318.22804361979166L659.0665486970775,318.22804361979166L659.3808201633453,318.22804361979166L660.7164738949839,318.22804361979166L661.9735597600555,318.22804361979166L662.4842508927409,318.22804361979166L662.6413866258748,318.22804361979166L664.7234350898997,318.22804361979166L664.8805708230336,318.22804361979166L665.4698298222859,318.22804361979166L668.5732605516815,318.22804361979166L670.3803214827219,318.22804361979166L670.4196054160054,318.22804361979166L670.5767411491394,318.22804361979166L672.1480984804789,318.22804361979166L672.6980735464477,318.22804361979166L673.2480486124166,318.22804361979166L673.8373076116688,318.22804361979166L674.7408380771891,318.22804361979166L675.0943934767405,318.22804361979166L675.6443685427093,318.22804361979166L680.3191566034444,318.22804361979166L680.9476995359802,318.22804361979166L681.497674601949,318.22804361979166L682.0476496679179,318.22804361979166L682.4012050674692,318.22804361979166L683.5404391326904,318.22804361979166L684.2868338650767,318.22804361979166L684.9153767976126,318.22804361979166L685.1510803973134,318.22804361979166L685.7403393965657,318.22804361979166L685.9760429962666,318.22804361979166L687.0759931282042,318.22804361979166L687.1545609947713,318.22804361979166L691.7900651222228,318.22804361979166L692.6935955877431,318.22804361979166L692.8900152541605,318.22804361979166L694.0685332526651,318.22804361979166L695.7970263171387,318.22804361979166L696.1898656499735,318.22804361979166L697.2505318486277,318.22804361979166L697.682655114746,318.22804361979166L698.9790249131012,318.22804361979166L699.2932963793692,318.22804361979166L700.0396911117554,318.22804361979166L700.4718143778738,318.22804361979166L702.1217395757802,318.22804361979166L704.0073683733876,318.22804361979166L704.0466523066711,318.22804361979166L708.3678849678547,318.22804361979166L710.0963780323283,318.22804361979166L711.2356120975495,318.22804361979166L711.7070192969512,318.22804361979166L712.0212907632191,318.22804361979166L714.3783267602284,328.44483870442707L714.4176106935118,334.57491575520834L716.3818073576863,338.2529619856771L716.4996591575368,340.4597897239583L716.5782270241037,341.78388636692705L716.8139306238047,342.5783443527083L719.4066702205149,343.0550191441771L720.7030400188701,343.34102401905835L722.5101009499105,343.5126269439871L723.2564956822968,343.6155886989443L723.3743474821472,343.67736575191867L723.8850386148325,343.71443198370326L730.7990108727264,343.7366717227741L730.8775787392933,343.7500155662165L731.2704180721283,343.75802187228203L732.6453557370504,343.7628256559213L732.9989111366017,343.7657079261049L735.8273543330129,343.767437288215L735.9844900661469,343.76847490548107L738.2629581965891,343.76909747584074L739.8735994612122,343.7694710180565L741.0521174597168,343.769695143386L741.1306853262838,343.7698296185837L741.6806603922525,343.76991030370226L741.798512192103,343.76995871477345L742.7413265909067,343.76998776141613L744.3126839222464,343.7700051894018L744.4698196553803,343.77001564619314L746.473300252838,343.77002192026794L747.023275318807,343.7700256847129L748.5160647835795,343.7700279433798L748.6339165834299,343.7700292985799L749.3803113158162,343.77003011170007L751.1088043802896,343.7700305995721L751.3445079799906,343.7700308922953L751.3837919132741,343.77003106792927L752.01233484581,343.77003117330963L752.4837420452117,343.7700312365379L755.3907531081899,343.77003127447483L755.4693209747569,343.770031297237L756.2157157071432,343.7700313108943L756.7264068398284,343.7700313190886L757.1192461726633,343.77003132400523L757.4335176389313,343.77003132695523L761.8726020999653,343.7700313287252L763.0118361651865,343.77003132978723L763.3261076314545,343.77003133042444L766.6259580272674,343.7700313308067L768.5115868248748,343.77003133103614L770.6329192221832,343.77003133117375L771.2221782214355,343.77003133125635L771.261462154719,343.77003133130586L771.8507211539713,343.77003133133564L772.7542516194915,343.77003133135344L773.4220784853109,343.7700313313642L773.7756338848621,343.77003133137055L775.1112876165008,343.7700313313744L776.5647931479899,343.7700313313767L778.3718540790303,343.7700313313781L780.2967668099212,343.77003133137896L780.6896061427561,343.7700313313794L780.9645936757405,343.77003133137976L781.003877609024,343.7700313313799L781.1610133421581,343.77003133138004L783.1252100063324,343.7700313313801L783.7930368721517,343.77003133138015L784.2644440715535,343.7700313313802L785.8750853361764,343.7700313313802L785.9929371360271,343.7700313313802L787.053603334681,343.7700313313802L788.1928373999023,343.7700313313802L788.8213803324381,343.7700313313802L789.135651798706,343.7700313313802L789.9606143976592,343.7700313313802L790.4320215970611,343.7700313313802L790.7462930633291,343.7700313313802L790.903428796463,343.7700313313802L791.060564529597,343.7700313313802L793.8104398594411,343.7700313313802L796.5210312560017,343.7700313313802L798.720931519877,343.7700313313802L799.2316226525625,343.7700313313802L801.5493747162883,343.7700313313802L801.5886586495717,343.7700313313802L802.0600658489735,343.7700313313802L802.5314730483755,343.7700313313802L803.1207320476277,343.7700313313802L804.0635464464315,343.7700313313802L804.5742375791168,343.7700313313802L804.9277929786682,343.7700313313802L806.1848788437399,343.7700313313802L808.699050573883,343.7700313313802L809.8775685723878,343.7700313313802L810.0739882388051,343.7700313313802L810.1132721720886,343.7700313313802L810.5846793714904,343.7700313313802L811.0168026376089,343.7700313313802L815.4558870986428,343.7700313313802L815.4951710319264,343.7700313313802L815.7308746316274,343.7700313313802L815.8487264314779,343.7700313313802L816.3201336308797,343.7700313313802L816.9093926301321,343.7700313313802L819.9342554929606,343.7700313313802L820.9556377583312,343.7700313313802L821.1913413580322,343.7700313313802L821.2306252913156,343.7700313313802L823.587661288325,343.7700313313802L824.6090435536956,343.7700313313802L826.3768205514526,343.7700313313802L826.4946723513032,343.7700313313802L827.3589188835398,343.7700313313802L828.8517083483124,343.7700313313802L829.2445476811472,343.7700313313802L829.4016834142811,343.7700313313802L829.4409673475647,343.7700313313802L833.172941009496,343.7700313313802L833.251508876063,343.7700313313802L835.8835324060567,343.7700313313802L837.4941736706797,343.7700313313802L839.4583703348542,343.7700313313802L839.7726418011221,343.7700313313802L840.3619008003743,343.7700313313802L840.7547401332092,343.7700313313802L840.9118758663432,343.7700313313802L841.4618509323119,343.7700313313802L843.229627930069,343.7700313313802L843.5831833296203,343.7700313313802L844.525997728424,343.7700313313802L844.6438495282745,343.7700313313802L846.4116265260315,343.7700313313802L849.2007857891591,343.7700313313802L849.8293287216949,343.7700313313802L850.6542913206482,343.7700313313802L850.9292788536326,343.7700313313802L852.5006361849721,343.7700313313802L854.9362400485484,343.7700313313802L855.0148079151154,343.7700313313802L858.0003868446604,343.7700313313802L858.7860655103302,343.7700313313802L860.1217192419688,343.7700313313802L860.7502621745047,344.6074735514323L861.182385440623,345.1099388834635L863.5001375043487,345.41141808268225L863.5394214376322,345.5923056022135L863.6965571707661,345.7008381139323L864.2072483034515,345.76595762096355L864.7965073027038,345.80502932518226L867.1928272329966,345.8284723477135L869.5105792967224,345.8425381612323L876.4638354878998,345.8509776493436L877.2887980868529,345.8560413422103L878.4673160853575,345.85907955793033L879.7244019504292,345.86090248736235L880.0779573499807,345.86199624502154L880.8243520823669,345.8626524996171L881.5314628814697,345.86304625237443L883.2599559459431,345.8632825040288L883.6135113454945,345.8634242550214L884.3991900111643,345.8635093056171L885.263436543401,345.8635603359744L886.1669670089212,345.8635909541888L886.8347938747405,345.86360932511747L886.952645674591,345.8636203476746L887.0704974744415,345.8636269612089L888.5240030059306,345.86363092932953L889.6239531378683,345.86363331020186L890.331063936971,345.8636347387253L890.4096318035379,345.8636355958393L893.6701982660675,345.86363611010773L894.1023215321859,345.8636364186688L895.16298773084,345.86363660380545L896.1843699962106,345.86363671488743L897.1664683282979,345.8636367815366L897.2843201281484,345.8636368215261L901.4484170561981,345.86363684551986L901.605552789332,345.8636368599161L902.1948117885843,345.8636368685538L902.2733796551513,345.8636368737365L902.4697993215689,345.86363687684604L902.7055029212697,345.8636368787118L903.2161940539551,345.86363687983123L903.5304655202231,345.8636368805029L904.9446871184285,345.8636368809059L905.5732300509643,345.86363688114767L908.5980929137929,345.8636368812928L909.4623394460297,345.8636368813799L909.5409073125967,345.86363688143206L910.0123145119985,345.8636368814634L910.3265859782663,345.86363688148225L910.5622895779672,345.8636368814935L911.5836718433379,345.86363688150027L911.7408075764719,345.8636368815043L912.6836219752756,345.86363688150675L913.115745241394,345.8636368815082L914.0192757069142,345.8636368815091L914.4906829063161,345.86363688150965L915.7477687713878,345.86363688150993L918.8511995007832,345.86363688151016L919.9904335660043,345.8636368815103L920.4225568321228,345.86363688151033L921.7974944970449,345.86363688151033L922.2296177631632,345.8636368815104L926.393714691213,345.8636368815104L926.47228255778,345.8636368815104L926.8258379573313,345.8636368815104L926.9829736904652,345.8636368815104L927.0222576237487,345.8636368815104L927.2972451567332,345.8636368815104L927.925788089269,345.8636368815104L928.1222077556864,345.8636368815104L929.9292686867269,345.8636368815104L930.0864044198609,345.8636368815104L930.1649722864278,345.8636368815104L931.6970456844838,345.8636368815104L931.8148974843342,345.8636368815104L932.3648725503032,345.8636368815104L935.4290193464151,345.8636368815104L935.7040068793997,345.8636368815104L936.7253891447702,345.8636368815104L945.2892866005707,345.8636368815104L946.2321009993743,345.8636368815104L947.253483264745,345.8636368815104L947.2927671980285,345.8636368815104L948.1570137302652,345.8636368815104L948.5498530631,345.8636368815104L949.1783959956359,345.8636368815104L950.0819264611562,345.8636368815104L951.8104195256296,345.8636368815104L953.5389125901031,345.8636368815104L953.931751922938,345.8636368815104L954.0103197895049,345.8636368815104L954.2853073224893,345.8636368815104L954.8745663217418,345.8636368815104L957.6637255848693,345.8636368815104L957.7422934514364,345.8636368815104L959.1957989829253,345.8636368815104L961.0814277805327,345.8636368815104L961.9063903794861,345.8636368815104L963.0063405114238,345.8636368815104L963.3206119776917,345.8636368815104L963.7134513105265,345.8636368815104L965.0883889754485,345.8636368815104L966.5418945069376,345.8636368815104L968.1525357715607,345.8636368815104L968.7025108375294,345.8636368815104L970.3917199687195,345.8636368815104L972.5130523660279,345.8636368815104L973.4558667648314,345.8636368815104L973.4951506981149,345.8636368815104L978.9949013578033,345.8636368815104L980.0555675564575,345.8636368815104L981.4305052213796,345.8636368815104L981.6662088210804,345.8636368815104L981.8233445542144,345.8636368815104L984.1803805512236,345.8636368815104L984.3768002176412,345.8636368815104L984.8874913503265,345.8636368815104L985.7910218158468,345.8636368815104L986.2624290152486,345.8636368815104L989.2480079447937,345.8636368815104L990.8193652761332,345.8636368815104L992.3907226074726,345.8636368815104L993.8049442056783,345.8636368815104L994.669190737915,345.8636368815104L995.06203007075,345.8636368815104L996.3191159358215,345.8636368815104L996.9476588683573,345.8636368815104L998.047609000295,345.8636368815104L998.0868929335784,345.8636368815104L1001.7402987289428,345.8636368815104L1003.2330881937153,345.8636368815104L1005.2365687911732,345.8636368815104L1005.3151366577403,345.8636368815104L1006.7293582559457,345.8636368815104L1007.4364690550486,345.8636368815104L1007.5543208548991,345.8636368815104L1010.3041961847432,345.8636368815104L1012.1505410490671,345.8636368815104L1013.3683429808552,345.8636368815104L1014.1933055798086,345.8636368815104L1016.2360701105498,345.8636368815104L1018.4752543077086,345.8636368815104L1019.4966365730794,345.8636368815104L1022.4036476360576,345.8636368815104L1022.9536227020263,345.8636368815104L1024.132140700531,345.8636368815104L1024.3678443002318,345.8636368815104L1026.1356212979888,345.8636368815104L1030.0247306930542,345.8636368815104L1032.421050623347,345.8636368815104L1033.3638650221505,345.8636368815104L1033.5995686218516,345.8636368815104L1035.3673456196086,345.8636368815104L1036.2315921518452,345.8636368815104L1036.7422832845307,345.8636368815104L1038.4707763490042,345.8636368815104L1039.8064300806427,345.8636368815104L1039.9635658137765,345.8636368815104L1040.6313926795958,345.8636368815104L1040.7099605461628,345.8636368815104L1045.1883289404805,345.8636368815104L1045.9740076061503,345.8636368815104L1046.3668469389852,345.8636368815104L1047.3489452710724,345.8636368815104L1049.0381544022623,345.8636368815104L1049.588129468231,345.8636368815104L1051.1594867995707,345.8636368815104L1051.513042199122,345.8636368815104L1053.359387063446,345.8636368815104L1053.51652279658,345.8636368815104L1053.9093621294148,345.8636368815104L1054.341485395533,345.8636368815104L1054.4986211286673,345.8636368815104L1054.6164729285176,345.8636368815104L1054.9307443947855,345.8636368815104L1055.7557069937388,345.8636368815104L1056.0306945267232,345.8636368815104L1056.8556571256765,345.8636368815104L1058.2305947905986,345.8636368815104L1059.0162734562682,345.8636368815104L1059.0948413228352,345.8636368815104L1059.7626681886545,345.8636368815104L1060.3126432546235,345.8636368815104L1062.7482471181997,321.5778125L1062.8268149847665,307.00631787109376L1063.3767900507355,322.5492454752604L1065.0659991819255,331.8750020377604L1065.4588385147604,337.4704559752604L1067.1087637126668,340.8277283377604L1067.5016030455017,342.8420917552604L1068.012294178187,344.0507098057604L1070.4478980417632,344.77588063606044L1071.390712440567,345.2109831342404L1076.301204101003,345.4720446331484L1078.1082650320434,345.6286815324932L1079.0117954975635,345.7226636721001L1084.7079658236694,345.7790529558642L1086.1614713551585,345.81288652612267L1086.6328785545604,345.8331866682778L1087.654260819931,345.84536675357083L1088.2828037524669,345.8526748047467L1088.3613716190337,345.8570596354522L1088.6756430853015,345.8596905338755L1088.7542109518686,345.8612690729294L1090.4041361497752,345.8622161963618L1092.643320346934,345.8627844704213L1093.2325793461862,345.8631254348569L1093.2718632794697,345.8633300135183L1095.3539117434946,345.8634527607152L1096.2967261422984,345.8635264090332L1096.6895654751331,345.8635705980241L1097.160972674535,345.86359711141864L1097.2788244743856,345.86361301945533L1099.5572926048278,345.86362256427736L1102.1500322015381,345.8636282911706L1102.5035876010895,345.8636317273065L1103.760673466161,345.86363378898807L1104.1142288657124,345.863635025997L1104.4285003319803,345.86363576820236L1104.7427717982482,345.8636362135256L1105.4891665306345,345.86363648071955L1105.9605737300365,345.8636366410359L1106.0391415966033,345.8636367372257L1107.139091728541,345.86363679493957L1109.142572325999,345.8636368295679L1110.28180639122,345.8636368503449L1110.360374257787,345.8636368628111L1111.3424725898742,345.86363687029086L1111.8531637225597,345.86363687477865L1111.9317315891265,345.8636368774714L1112.2852869886779,345.863636879087L1114.7601747855376,345.8636368800564L1116.488667850011,345.86363688063796L1116.6850875164287,345.8636368809869L1119.2385431798552,345.8636368811963L1121.5562952435812,345.86363688132195L1122.7348132420857,345.8636368813973L1123.00980077507,345.8636368814426L1123.2062204414876,345.8636368814697L1123.402640107905,345.863636881486L1123.7954794407399,345.8636368814957L1124.3454545067086,345.8636368815016" fill="none"></path></g></g></g></g><g opacity="0.2"><g><g><g><path style="fill: none;" stroke="rgb(204, 51, 17)" stroke-width="2px" d="M79.2749773660787,48.15292765299479L80.41421143129983,48.15292765299479L81.00347043055216,48.15292765299479L81.04275436383566,48.15292765299479L82.06413662920635,48.15292765299479L82.61411169517517,48.15292765299479L82.77124742830911,48.15292765299479L83.59621002726237,48.15292765299479L85.01043162546793,48.15292765299479L85.32470309173584,48.57164876302085L88.15314628814697,48.15292765299479L88.7424052873993,49.82781209309896L89.64593575291951,48.15292765299479L91.09944128440856,48.15292765299479L93.73146481440226,48.15292765299479L94.36000774693805,48.15292765299479L94.87069887962342,48.57164876302085L95.73494541186015,52.34013875325519L96.8348955437978,52.34013875325519L97.2277348766327,52.34013875325519L97.46343847633361,52.34013875325519L98.60267254155477,52.34013875325519L99.50620300707499,100.49306640625002L99.70262267349243,100.49306640625002L99.7811905400594,100.49306640625002L100.4097334725952,100.49306640625002L101.98109080393473,179.2126350911458L103.59173206855775,100.49306640625002L103.82743566825866,98.81818196614584L103.86671960154214,98.81818196614584L104.41669466751098,98.81818196614584L105.08452153333029,98.81818196614584L108.5807915955607,48.57164876302085L109.01291486167908,48.57164876302085L110.15214892690022,48.57164876302085L112.23419739092509,51.50269653320314L112.58775279047647,51.50269653320314L113.37343145614624,51.50269653320314L115.57333172002156,51.50269653320314L118.44105884971619,51.92141764322917L118.87318211583454,51.92141764322917L119.3053053819529,51.92141764322917L120.05170011433918,51.92141764322917L120.6409591135915,51.92141764322917L122.21231644493102,51.92141764322917L122.76229151089986,51.92141764322917L123.03727904388428,51.92141764322917L123.82295770955403,51.92141764322917L124.29436490895588,51.92141764322917L124.76577210835774,51.92141764322917L125.08004357462565,51.92141764322917L126.41569730626424,51.92141764322917L127.75135103790282,51.92141764322917L127.8299189044698,51.92141764322917L128.34061003715513,51.92141764322917L128.4977457702891,51.92141764322917L131.40475683326721,51.92141764322917L132.62255876505535,51.92141764322917L134.23320002967833,52.75885986328125L135.80455736101786,52.75885986328125L135.84384129430134,52.75885986328125L137.2580628925069,52.34013875325519L137.88660582504272,52.34013875325519L138.00445762489318,52.34013875325519L139.37939528981528,51.92141764322917L139.4972470896657,51.92141764322917L140.04722215563456,51.92141764322917L141.2650240874227,51.92141764322917L142.4828260192108,51.92141764322917L142.79709748547873,51.92141764322917L144.1720351504008,63.2268876139323L144.7612941496531,64.48305094401042L145.4291210154724,64.48305094401042L145.5076888820394,64.48305094401042L145.78267641502381,64.90177205403648L148.37541601173402,64.90177205403648L151.12529134157816,65.3204931640625L151.63598247426353,65.3204931640625L153.16805587231954,65.3204931640625L153.56089520515442,65.3204931640625L154.77869713694253,65.3204931640625L155.56437580261232,65.3204931640625L155.6036597358958,65.3204931640625L156.31077053499857,51.92141764322917L159.88560846379596,52.34013875325519L160.2391638633474,52.34013875325519L160.63200319618224,52.34013875325519L161.0641264623006,52.34013875325519L165.34607519020082,48.57164876302085L169.66730785138446,52.34013875325519L171.23866518272402,52.34013875325519L174.26352804555256,53.17758097330728L174.45994771197,53.17758097330728L174.97063884465535,53.17758097330728L175.28491031092324,53.17758097330728L175.40276211077372,53.17758097330728L176.18844077644346,53.17758097330728L176.89555157554628,53.17758097330728L177.44552664151507,53.17758097330728L177.95621777420044,53.17758097330728L179.80256263852436,53.17758097330728L179.84184657180788,53.17758097330728L180.6668091707611,53.17758097330728L181.76675930269877,53.17758097330728L182.08103076896666,53.17758097330728L182.39530223523457,53.17758097330728L184.00594349985758,53.17758097330728L184.35949889940898,53.17758097330728L184.94875789866128,53.17758097330728L185.30231329821268,53.17758097330728L186.2058437637329,54.01502319335937L186.71653489641827,54.01502319335937L186.75581882970175,54.01502319335937L186.79510276298524,54.01502319335937L187.30579389567058,54.01502319335937L187.97362076148985,54.01502319335937L189.03428696014402,54.01502319335937L190.29137282521566,54.01502319335937L190.95919969103494,54.01502319335937L194.92687695266721,54.01502319335937L195.3590002187856,54.01502319335937L199.68023287996925,64.06432983398439L199.71951681325274,64.06432983398439L200.5051954789225,64.06432983398439L200.544479412206,64.06432983398439L201.13373841145832,64.06432983398439L202.11583674354554,64.06432983398439L204.2371691408539,64.06432983398439L204.94427993995666,64.06432983398439L205.88709433876036,64.06432983398439L206.82990873756407,64.06432983398439L206.94776053741455,64.06432983398439L210.40474666636146,65.3204931640625L212.2903754639689,65.3204931640625L214.5295596611277,65.3204931640625L215.39380619336444,65.73921427408852L215.70807765963235,65.73921427408852L216.06163305918372,65.73921427408852L217.08301532455445,65.73921427408852L218.65437265589395,65.73921427408852L218.77222445574444,65.73921427408852L219.99002638753257,65.73921427408852L220.61856932006836,65.73921427408852L222.1113587848409,65.73921427408852L222.22921058469134,65.73921427408852L222.3863463178253,65.73921427408852L222.66133385080974,65.73921427408852L222.7791856506602,65.73921427408852L223.52558038304647,65.73921427408852L224.3898269152832,65.73921427408852L226.3147396461741,65.73921427408852L227.13970224512735,65.73921427408852L229.73244184183753,65.73921427408852L229.81100970840453,65.73921427408852L231.8537742391459,65.73921427408852L232.36446537183124,65.73921427408852L232.60016897153218,65.73921427408852L233.07157617093404,65.73921427408852L234.7215013688405,65.73921427408852L236.17500690032958,65.73921427408852L236.60713016644797,65.73921427408852L237.54994456525168,65.73921427408852L239.00345009674072,65.73921427408852L239.9855484288279,65.73921427408852L240.4569556282298,65.73921427408852L240.57480742808022,65.73921427408852L241.43905396031698,65.73921427408852L242.81399162523905,65.73921427408852L243.24611489135742,65.73921427408852L244.6210525562795,65.73921427408852L245.79957055478414,65.73921427408852L248.19589048507692,65.73921427408852L248.58872981791177,65.73921427408852L253.53850541163126,65.73921427408852L256.7205040075938,65.73921427408852L256.8776397407277,65.73921427408852L257.85973807281493,65.73921427408852L259.74536687042234,65.73921427408852L261.1988724019114,65.73921427408852L262.80951366653443,65.73921427408852L262.8880815331014,65.73921427408852L263.1237851328023,65.73921427408852L263.4773405323537,65.73921427408852L264.3808709978739,65.73921427408852L266.22721586219785,65.73921427408852L268.3878321927897,65.73921427408852L268.5056839926402,65.73921427408852L268.54496792592363,65.73921427408852L268.85923939219157,65.73921427408852L270.35202885696407,65.73921427408852L271.45197898890177,65.73921427408852L272.198373721288,65.73921427408852L272.9840523869578,65.73921427408852L274.2018543187459,65.73921427408852L278.0909637138112,65.73921427408852L278.4445191133626,65.73921427408852L278.5230869799296,65.73921427408852L280.1730121778361,65.73921427408852L280.33014791097,65.73921427408852L280.9194069102224,65.73921427408852L281.0765426433563,65.73921427408852L282.3336285084279,65.73921427408852L282.84431964111326,65.73921427408852L283.8264179732005,65.73921427408852L284.3371091058858,65.73921427408852L284.9263681051381,65.73921427408852L285.2799235046895,65.73921427408852L285.39777530454,65.73921427408852L286.5762933030446,64.06432983398439L287.5191077018483,64.06432983398439L287.6369595016988,64.06432983398439L289.20831683303834,64.06432983398439L289.5225882993062,64.06432983398439L290.8189580976613,64.06432983398439L292.4688832955678,64.06432983398439L292.8224386951192,64.06432983398439L293.0188583615367,64.06432983398439L294.98305502571105,64.06432983398439L301.18991648450213,64.06432983398439L303.66480428136185,64.06432983398439L304.76475441329956,64.06432983398439L305.6682848788198,64.06432983398439L307.67176547627764,64.06432983398439L309.00741920791626,64.06432983398439L309.5181103406016,64.06432983398439L312.54297320343017,64.06432983398439L313.5250715355174,64.06432983398439L314.1536144680532,64.06432983398439L314.62502166745503,64.06432983398439L316.3535147319285,64.06432983398439L318.63198286237076,64.06432983398439L319.49622939460755,278.03081705729164L319.69264906102495,64.06432983398439L319.8497847941589,278.03081705729164L323.11035125668843,278.03081705729164L323.8174620557912,278.03081705729164L325.2316836539968,278.03081705729164L327.3137321180216,278.03081705729164L327.3922999845886,278.03081705729164L328.33511438339235,278.03081705729164L328.3743983166758,278.03081705729164L328.57081798309326,278.03081705729164L328.76723764951066,278.03081705729164L332.8527667109934,278.03081705729164L335.01338304158526,278.03081705729164L335.72049384068805,278.03081705729164L335.9169135071055,278.03081705729164L336.42760463979084,278.03081705729164L336.6240243062083,278.03081705729164L337.2525672387441,278.03081705729164L337.4489869051615,278.03081705729164L337.8025423047129,278.03081705729164L338.43108523724874,278.03081705729164L340.70955336769106,278.03081705729164L342.55589823201495,278.03081705729164L342.9487375648498,278.03081705729164L343.7344162305196,279.2869803873698L345.777180761261,279.2869803873698L347.3485380926005,279.2869803873698L347.6628095588684,279.2869803873698L348.0163649584198,279.2869803873698L348.6449078909556,279.2869803873698L350.25554915557865,279.2869803873698L350.3734009554291,279.2869803873698L350.80552422154744,279.2869803873698L353.20184415184025,279.2869803873698L353.39826381825765,279.2869803873698L353.4768316848246,279.2869803873698L355.67673194869997,279.2869803873698L358.1516197455597,279.2869803873698L358.2694715454101,279.2869803873698L358.5051751451111,279.2869803873698L359.9979646098836,279.2869803873698L360.54793967585243,279.2869803873698L361.6871737410736,279.2869803873698L363.49423467211403,279.2869803873698L364.31919727106725,279.2869803873698L365.6548510027059,279.2869803873698L366.83336900121054,279.2869803873698L367.42262800046285,279.2869803873698L367.97260306643165,279.2869803873698L370.68319446299233,280.96186482747396L371.78314459493,280.96186482747396L371.9402803280639,280.96186482747396L372.0188481946309,280.96186482747396L372.4902553940328,280.96186482747396L373.43306979283653,280.96186482747396L373.9044769922383,280.96186482747396L374.45445205820715,280.96186482747396L374.8865753243255,280.96186482747396L375.27941465716043,280.96186482747396L376.8507719884999,280.96186482747396L377.20432738805135,280.96186482747396L377.2828952546183,280.96186482747396L378.6185489862569,280.96186482747396L378.85425258595785,280.96186482747396L379.4827955184937,280.96186482747396L382.11481904848733,280.96186482747396L382.23267084833776,280.96186482747396L383.2540531137085,280.96186482747396L384.74684257848105,280.96186482747396L384.7861265117645,280.96186482747396L385.8075087771352,280.96186482747396L386.4753356429545,280.96186482747396L387.1431625087738,280.96186482747396L388.71451984011327,280.96186482747396L388.95022343981424,280.96186482747396L390.05017357175194,280.96186482747396L392.2893577689107,280.96186482747396L394.64639376592,280.96186482747396L395.90347963099157,280.96186482747396L397.63197269546504,280.96186482747396L398.49621922770183,280.96186482747396L399.28189789337154,280.96186482747396L400.38184802530924,280.96186482747396L401.32466242411294,280.96186482747396L401.8353535567982,280.96186482747396L403.72098235440575,280.96186482747396L404.27095742037454,280.96186482747396L404.467377086792,280.96186482747396L406.66727735066735,280.96186482747396L407.09940061678566,280.96186482747396L407.6493756827545,280.96186482747396L408.4350543484243,280.96186482747396L408.9850294143931,280.96186482747396L412.1277440770721,280.96186482747396L414.366928274231,280.96186482747396L414.6026318739319,280.96186482747396L414.9561872734833,280.96186482747396L417.1168036040751,280.96186482747396L417.4703590036265,280.96186482747396L418.7274448686981,280.96186482747396L418.88458060183206,280.96186482747396L420.1023825336202,280.96186482747396L420.33808613332116,280.96186482747396L421.0451969324239,280.96186482747396L421.2809005321248,280.96186482747396L422.3808506640625,280.96186482747396L422.4594185306294,280.96186482747396L423.3236650628662,280.96186482747396L423.4022329294332,280.96186482747396L425.17000992719016,280.96186482747396L425.56284926002496,280.96186482747396L426.81993512509666,280.96186482747396L427.01635479151406,280.96186482747396L427.29134232449843,280.96186482747396L428.862699655838,279.7057014973958L429.01983538897196,279.7057014973958L431.53400711911513,279.7057014973958L432.3589697180684,279.7057014973958L433.4196359167226,279.7057014973958L434.40173424880976,279.7057014973958L436.87662204566954,279.7057014973958L438.0944239774577,279.7057014973958L440.4514599744669,279.7057014973958L442.0228173058064,279.7057014973958L443.5548907038625,279.7057014973958L444.0262979032644,279.7057014973958L444.10486576983135,279.7057014973958L444.3798533028157,279.7057014973958L444.969112302068,279.7057014973958L445.6762231011708,279.7057014973958L446.22619816713967,279.7057014973958L446.736889299825,279.7057014973958L446.9333089662424,279.7057014973958L447.3261482990773,279.7057014973958L450.036739695638,279.7057014973958L453.25802222488403,279.7057014973958L453.6115776244354,279.7057014973958L454.3579723568217,279.7057014973958L455.41863855547587,279.7057014973958L458.48278535158795,279.7057014973958L458.5220692848714,279.7057014973958L459.30774795054117,279.7057014973958L459.779155149943,279.7057014973958L460.09342661621093,279.7057014973958L461.7040678808339,279.7057014973958L461.7433518141174,279.7057014973958L462.4504626132202,279.7057014973958L464.0611038778432,279.7057014973958L464.4932271439616,279.7057014973958L465.0039182766469,279.7057014973958L465.51460940933225,279.7057014973958L466.1824362751516,279.7057014973958L467.2431024738058,279.7057014973958L467.6359418066406,279.7057014973958L468.14663293932597,279.7057014973958L469.36443487111404,279.7057014973958L469.40371880439756,279.7057014973958L469.443002737681,279.7057014973958L469.8358420705159,279.7057014973958L470.34653320320126,279.7057014973958L470.5822368029022,279.7057014973958L471.132211868871,279.7057014973958L473.8820871987152,279.7057014973958L474.9427533973694,279.7057014973958L476.16055532915755,279.7057014973958L476.8283821949768,279.7057014973958L478.91043065900163,279.7057014973958L479.5782575248209,279.7057014973958L479.8532450578054,279.7057014973958L481.97457745511366,279.7057014973958L482.4067007212321,279.7057014973958L484.8423045848083,279.7057014973958L484.9601563846588,279.7057014973958L484.99944031794223,279.7057014973958L486.9243530488332,279.7057014973958L488.8885497130076,279.7057014973958L489.1242533127085,279.7057014973958L489.16353724599196,279.7057014973958L489.39924084569293,279.7057014973958L491.08844997688294,279.7057014973958L491.7562768427022,279.7057014973958L493.44548597389223,279.7057014973958L493.916893173294,279.7057014973958L494.82042363881425,279.7057014973958L496.2739291703033,279.7057014973958L496.6667685031382,279.7057014973958L496.74533636970517,279.7057014973958L499.18094023328143,279.7057014973958L499.5737795661163,279.7057014973958L499.8487670991007,279.7057014973958L501.69511196342467,279.7057014973958L504.48427122655227,279.7057014973958L509.7483182865397,270.0751159667969L511.5946631508636,270.0751159667969L511.7910828172811,270.0751159667969L512.105354283549,270.0751159667969L512.8124650826518,270.0751159667969L514.3838224139913,270.0751159667969L515.326636812795,270.0751159667969L515.5623404124959,270.0751159667969L515.6016243457794,270.0751159667969L516.937278077418,270.0751159667969L517.3694013435363,271.750000406901L519.0193265414429,271.750000406901L519.2550301411437,271.750000406901L519.5693016074117,271.750000406901L523.6548306688944,271.750000406901L523.6941146021779,271.750000406901L526.1690023990377,271.750000406901L526.5618417318725,271.750000406901L526.75826139829,271.750000406901L528.0939151299285,271.750000406901L528.290334796346,271.750000406901L528.8010259290313,271.750000406901L528.8795937955983,271.750000406901L531.3544815924581,271.750000406901L533.3972461231995,271.750000406901L534.6936159215545,271.750000406901L538.032750250651,271.750000406901L539.6041075819905,285.1490759277344L540.3897862476604,285.1490759277344L540.7433416472117,285.1490759277344L541.568304246165,281.3805859375L542.7861061779531,285.1490759277344L542.86467404452,285.1490759277344L543.021809777654,285.1490759277344L543.8467723766073,285.1490759277344L543.9646241764577,285.1490759277344L544.1217599095917,285.1490759277344L544.7503028421274,285.1490759277344L545.1038582416788,285.1490759277344L545.3395618413798,285.1490759277344L548.2072889710744,285.1490759277344L548.8751158368937,285.1490759277344L551.0357321674855,285.1490759277344L552.9606448983765,285.1490759277344L556.8497542934417,285.1490759277344L557.0068900265758,285.1490759277344L559.206790290451,285.1490759277344L560.6210118886567,285.1490759277344L561.8388138204448,285.1490759277344L561.9173816870117,285.1490759277344L562.3887888864135,285.1490759277344L563.881578351186,285.1490759277344L565.4529356825257,285.1490759277344L565.6100714156596,285.1490759277344L565.6886392822265,285.1490759277344L566.5136018811799,285.1490759277344L566.5528858144633,285.1490759277344L567.1421448137156,285.1490759277344L567.6135520131174,285.1490759277344L568.6742182117716,285.1490759277344L568.7527860783385,285.1490759277344L568.8313539449056,285.1490759277344L571.7383650078838,285.1490759277344L573.5847098722077,285.1490759277344L575.4310547365316,285.1490759277344L577.7880907335408,285.1490759277344L580.695101796519,318.22804361979166L581.0486571960703,318.22804361979166L585.369889857254,318.22804361979166L585.527025590388,318.22804361979166L586.1948524562073,318.22804361979166L587.059098988444,318.22804361979166L588.1590491203816,285.1490759277344L588.3161848535156,318.22804361979166L589.1411474524689,318.22804361979166L589.6518385851541,318.22804361979166L590.2018136511231,318.22804361979166L590.6732208505249,318.22804361979166L590.7125047838083,318.22804361979166L591.1446280499268,318.22804361979166L592.8731211144002,318.22804361979166L596.644378709615,318.22804361979166L598.1764521076711,318.22804361979166L599.0799825731913,318.22804361979166L599.5121058393097,318.22804361979166L601.2013149704997,318.22804361979166L602.9690919682566,318.22804361979166L604.5011653663126,318.22804361979166L605.6796833648173,318.22804361979166L607.1331888963064,318.22804361979166L609.7652124263,318.22804361979166L610.8651625582377,318.22804361979166L611.1794340245056,318.22804361979166L612.3579520230102,318.22804361979166L613.7328896879324,318.22804361979166L614.4792844203185,318.22804361979166L614.5578522868855,318.22804361979166L614.675704086736,318.22804361979166L615.1863952194213,318.22804361979166L617.3862954832967,318.22804361979166L618.1719741489665,318.22804361979166L620.7647137456767,318.22804361979166L621.9039478108978,318.22804361979166L622.6110586100006,318.22804361979166L624.2216998746235,318.22804361979166L625.2430821399943,318.22804361979166L627.403698470586,318.22804361979166L627.7572538701374,318.22804361979166L628.7786361355081,318.22804361979166L630.3499934668478,318.22804361979166L632.5498937307229,318.22804361979166L632.9820169968415,318.22804361979166L633.5319920628102,318.22804361979166L634.0426831954957,318.22804361979166L634.7497939945983,318.22804361979166L635.4961887269847,318.22804361979166L635.928311993103,318.22804361979166L636.1640155928038,318.22804361979166L636.6354227922058,318.22804361979166L637.303249658025,318.22804361979166L638.6781873229472,318.22804361979166L638.9531748559316,318.22804361979166L642.2530252517446,318.22804361979166L642.449444918162,318.22804361979166L642.7244324511464,318.22804361979166L642.9601360508473,318.22804361979166L644.2172219159189,318.22804361979166L644.2565058492024,318.22804361979166L644.4529255156199,318.22804361979166L645.0029005815887,318.22804361979166L645.3171720478566,318.22804361979166L645.3564559811401,318.22804361979166L647.9491955778502,318.22804361979166L648.0277634444172,318.22804361979166L649.5598368424734,318.22804361979166L651.2097620403798,318.22804361979166L653.0168229714203,318.22804361979166L653.8810695036569,318.22804361979166L657.8094628320058,318.22804361979166L658.3987218312581,318.22804361979166L659.0665486970775,318.22804361979166L659.3808201633453,318.22804361979166L660.7164738949839,318.22804361979166L661.9735597600555,318.22804361979166L662.4842508927409,318.22804361979166L662.6413866258748,318.22804361979166L664.7234350898997,318.22804361979166L664.8805708230336,318.22804361979166L665.4698298222859,318.22804361979166L668.5732605516815,318.22804361979166L670.3803214827219,318.22804361979166L670.4196054160054,318.22804361979166L670.5767411491394,318.22804361979166L672.1480984804789,318.22804361979166L672.6980735464477,318.22804361979166L673.2480486124166,318.22804361979166L673.8373076116688,318.22804361979166L674.7408380771891,318.22804361979166L675.0943934767405,318.22804361979166L675.6443685427093,318.22804361979166L680.3191566034444,318.22804361979166L680.9476995359802,318.22804361979166L681.497674601949,318.22804361979166L682.0476496679179,318.22804361979166L682.4012050674692,318.22804361979166L683.5404391326904,318.22804361979166L684.2868338650767,318.22804361979166L684.9153767976126,318.22804361979166L685.1510803973134,318.22804361979166L685.7403393965657,318.22804361979166L685.9760429962666,318.22804361979166L687.0759931282042,318.22804361979166L687.1545609947713,318.22804361979166L691.7900651222228,318.22804361979166L692.6935955877431,318.22804361979166L692.8900152541605,318.22804361979166L694.0685332526651,318.22804361979166L695.7970263171387,318.22804361979166L696.1898656499735,318.22804361979166L697.2505318486277,318.22804361979166L697.682655114746,318.22804361979166L698.9790249131012,318.22804361979166L699.2932963793692,318.22804361979166L700.0396911117554,318.22804361979166L700.4718143778738,318.22804361979166L702.1217395757802,318.22804361979166L704.0073683733876,318.22804361979166L704.0466523066711,318.22804361979166L708.3678849678547,318.22804361979166L710.0963780323283,318.22804361979166L711.2356120975495,318.22804361979166L711.7070192969512,318.22804361979166L712.0212907632191,318.22804361979166L714.3783267602284,343.7700313313802L714.4176106935118,343.7700313313802L716.3818073576863,343.7700313313802L716.4996591575368,343.7700313313802L716.5782270241037,343.7700313313802L716.8139306238047,343.7700313313802L719.4066702205149,343.7700313313802L720.7030400188701,343.7700313313802L722.5101009499105,343.7700313313802L723.2564956822968,343.7700313313802L723.3743474821472,343.7700313313802L723.8850386148325,343.7700313313802L730.7990108727264,343.7700313313802L730.8775787392933,343.7700313313802L731.2704180721283,343.7700313313802L732.6453557370504,343.7700313313802L732.9989111366017,343.7700313313802L735.8273543330129,343.7700313313802L735.9844900661469,343.7700313313802L738.2629581965891,343.7700313313802L739.8735994612122,343.7700313313802L741.0521174597168,343.7700313313802L741.1306853262838,343.7700313313802L741.6806603922525,343.7700313313802L741.798512192103,343.7700313313802L742.7413265909067,343.7700313313802L744.3126839222464,343.7700313313802L744.4698196553803,343.7700313313802L746.473300252838,343.7700313313802L747.023275318807,343.7700313313802L748.5160647835795,343.7700313313802L748.6339165834299,343.7700313313802L749.3803113158162,343.7700313313802L751.1088043802896,343.7700313313802L751.3445079799906,343.7700313313802L751.3837919132741,343.7700313313802L752.01233484581,343.7700313313802L752.4837420452117,343.7700313313802L755.3907531081899,343.7700313313802L755.4693209747569,343.7700313313802L756.2157157071432,343.7700313313802L756.7264068398284,343.7700313313802L757.1192461726633,343.7700313313802L757.4335176389313,343.7700313313802L761.8726020999653,343.7700313313802L763.0118361651865,343.7700313313802L763.3261076314545,343.7700313313802L766.6259580272674,343.7700313313802L768.5115868248748,343.7700313313802L770.6329192221832,343.7700313313802L771.2221782214355,343.7700313313802L771.261462154719,343.7700313313802L771.8507211539713,343.7700313313802L772.7542516194915,343.7700313313802L773.4220784853109,343.7700313313802L773.7756338848621,343.7700313313802L775.1112876165008,343.7700313313802L776.5647931479899,343.7700313313802L778.3718540790303,343.7700313313802L780.2967668099212,343.7700313313802L780.6896061427561,343.7700313313802L780.9645936757405,343.7700313313802L781.003877609024,343.7700313313802L781.1610133421581,343.7700313313802L783.1252100063324,343.7700313313802L783.7930368721517,343.7700313313802L784.2644440715535,343.7700313313802L785.8750853361764,343.7700313313802L785.9929371360271,343.7700313313802L787.053603334681,343.7700313313802L788.1928373999023,343.7700313313802L788.8213803324381,343.7700313313802L789.135651798706,343.7700313313802L789.9606143976592,343.7700313313802L790.4320215970611,343.7700313313802L790.7462930633291,343.7700313313802L790.903428796463,343.7700313313802L791.060564529597,343.7700313313802L793.8104398594411,343.7700313313802L796.5210312560017,343.7700313313802L798.720931519877,343.7700313313802L799.2316226525625,343.7700313313802L801.5493747162883,343.7700313313802L801.5886586495717,343.7700313313802L802.0600658489735,343.7700313313802L802.5314730483755,343.7700313313802L803.1207320476277,343.7700313313802L804.0635464464315,343.7700313313802L804.5742375791168,343.7700313313802L804.9277929786682,343.7700313313802L806.1848788437399,343.7700313313802L808.699050573883,343.7700313313802L809.8775685723878,343.7700313313802L810.0739882388051,343.7700313313802L810.1132721720886,343.7700313313802L810.5846793714904,343.7700313313802L811.0168026376089,343.7700313313802L815.4558870986428,343.7700313313802L815.4951710319264,343.7700313313802L815.7308746316274,343.7700313313802L815.8487264314779,343.7700313313802L816.3201336308797,343.7700313313802L816.9093926301321,343.7700313313802L819.9342554929606,343.7700313313802L820.9556377583312,343.7700313313802L821.1913413580322,343.7700313313802L821.2306252913156,343.7700313313802L823.587661288325,343.7700313313802L824.6090435536956,343.7700313313802L826.3768205514526,343.7700313313802L826.4946723513032,343.7700313313802L827.3589188835398,343.7700313313802L828.8517083483124,343.7700313313802L829.2445476811472,343.7700313313802L829.4016834142811,343.7700313313802L829.4409673475647,343.7700313313802L833.172941009496,343.7700313313802L833.251508876063,343.7700313313802L835.8835324060567,343.7700313313802L837.4941736706797,343.7700313313802L839.4583703348542,343.7700313313802L839.7726418011221,343.7700313313802L840.3619008003743,343.7700313313802L840.7547401332092,343.7700313313802L840.9118758663432,343.7700313313802L841.4618509323119,343.7700313313802L843.229627930069,343.7700313313802L843.5831833296203,343.7700313313802L844.525997728424,343.7700313313802L844.6438495282745,343.7700313313802L846.4116265260315,343.7700313313802L849.2007857891591,343.7700313313802L849.8293287216949,343.7700313313802L850.6542913206482,343.7700313313802L850.9292788536326,343.7700313313802L852.5006361849721,343.7700313313802L854.9362400485484,343.7700313313802L855.0148079151154,343.7700313313802L858.0003868446604,343.7700313313802L858.7860655103302,343.7700313313802L860.1217192419688,343.7700313313802L860.7502621745047,345.86363688151044L861.182385440623,345.86363688151044L863.5001375043487,345.86363688151044L863.5394214376322,345.86363688151044L863.6965571707661,345.86363688151044L864.2072483034515,345.86363688151044L864.7965073027038,345.86363688151044L867.1928272329966,345.86363688151044L869.5105792967224,345.86363688151044L876.4638354878998,345.86363688151044L877.2887980868529,345.86363688151044L878.4673160853575,345.86363688151044L879.7244019504292,345.86363688151044L880.0779573499807,345.86363688151044L880.8243520823669,345.86363688151044L881.5314628814697,345.86363688151044L883.2599559459431,345.86363688151044L883.6135113454945,345.86363688151044L884.3991900111643,345.86363688151044L885.263436543401,345.86363688151044L886.1669670089212,345.86363688151044L886.8347938747405,345.86363688151044L886.952645674591,345.86363688151044L887.0704974744415,345.86363688151044L888.5240030059306,345.86363688151044L889.6239531378683,345.86363688151044L890.331063936971,345.86363688151044L890.4096318035379,345.86363688151044L893.6701982660675,345.86363688151044L894.1023215321859,345.86363688151044L895.16298773084,345.86363688151044L896.1843699962106,345.86363688151044L897.1664683282979,345.86363688151044L897.2843201281484,345.86363688151044L901.4484170561981,345.86363688151044L901.605552789332,345.86363688151044L902.1948117885843,345.86363688151044L902.2733796551513,345.86363688151044L902.4697993215689,345.86363688151044L902.7055029212697,345.86363688151044L903.2161940539551,345.86363688151044L903.5304655202231,345.86363688151044L904.9446871184285,345.86363688151044L905.5732300509643,345.86363688151044L908.5980929137929,345.86363688151044L909.4623394460297,345.86363688151044L909.5409073125967,345.86363688151044L910.0123145119985,345.86363688151044L910.3265859782663,345.86363688151044L910.5622895779672,345.86363688151044L911.5836718433379,345.86363688151044L911.7408075764719,345.86363688151044L912.6836219752756,345.86363688151044L913.115745241394,345.86363688151044L914.0192757069142,345.86363688151044L914.4906829063161,345.86363688151044L915.7477687713878,345.86363688151044L918.8511995007832,345.86363688151044L919.9904335660043,345.86363688151044L920.4225568321228,345.86363688151044L921.7974944970449,345.86363688151044L922.2296177631632,345.86363688151044L926.393714691213,345.86363688151044L926.47228255778,345.86363688151044L926.8258379573313,345.86363688151044L926.9829736904652,345.86363688151044L927.0222576237487,345.86363688151044L927.2972451567332,345.86363688151044L927.925788089269,345.86363688151044L928.1222077556864,345.86363688151044L929.9292686867269,345.86363688151044L930.0864044198609,345.86363688151044L930.1649722864278,345.86363688151044L931.6970456844838,345.86363688151044L931.8148974843342,345.86363688151044L932.3648725503032,345.86363688151044L935.4290193464151,345.86363688151044L935.7040068793997,345.86363688151044L936.7253891447702,345.86363688151044L945.2892866005707,345.86363688151044L946.2321009993743,345.86363688151044L947.253483264745,345.86363688151044L947.2927671980285,345.86363688151044L948.1570137302652,345.86363688151044L948.5498530631,345.86363688151044L949.1783959956359,345.86363688151044L950.0819264611562,345.86363688151044L951.8104195256296,345.86363688151044L953.5389125901031,345.86363688151044L953.931751922938,345.86363688151044L954.0103197895049,345.86363688151044L954.2853073224893,345.86363688151044L954.8745663217418,345.86363688151044L957.6637255848693,345.86363688151044L957.7422934514364,345.86363688151044L959.1957989829253,345.86363688151044L961.0814277805327,345.86363688151044L961.9063903794861,345.86363688151044L963.0063405114238,345.86363688151044L963.3206119776917,345.86363688151044L963.7134513105265,345.86363688151044L965.0883889754485,345.86363688151044L966.5418945069376,345.86363688151044L968.1525357715607,345.86363688151044L968.7025108375294,345.86363688151044L970.3917199687195,345.86363688151044L972.5130523660279,345.86363688151044L973.4558667648314,345.86363688151044L973.4951506981149,345.86363688151044L978.9949013578033,345.86363688151044L980.0555675564575,345.86363688151044L981.4305052213796,345.86363688151044L981.6662088210804,345.86363688151044L981.8233445542144,345.86363688151044L984.1803805512236,345.86363688151044L984.3768002176412,345.86363688151044L984.8874913503265,345.86363688151044L985.7910218158468,345.86363688151044L986.2624290152486,345.86363688151044L989.2480079447937,345.86363688151044L990.8193652761332,345.86363688151044L992.3907226074726,345.86363688151044L993.8049442056783,345.86363688151044L994.669190737915,345.86363688151044L995.06203007075,345.86363688151044L996.3191159358215,345.86363688151044L996.9476588683573,345.86363688151044L998.047609000295,345.86363688151044L998.0868929335784,345.86363688151044L1001.7402987289428,345.86363688151044L1003.2330881937153,345.86363688151044L1005.2365687911732,345.86363688151044L1005.3151366577403,345.86363688151044L1006.7293582559457,345.86363688151044L1007.4364690550486,345.86363688151044L1007.5543208548991,345.86363688151044L1010.3041961847432,345.86363688151044L1012.1505410490671,345.86363688151044L1013.3683429808552,345.86363688151044L1014.1933055798086,345.86363688151044L1016.2360701105498,345.86363688151044L1018.4752543077086,345.86363688151044L1019.4966365730794,345.86363688151044L1022.4036476360576,345.86363688151044L1022.9536227020263,345.86363688151044L1024.132140700531,345.86363688151044L1024.3678443002318,345.86363688151044L1026.1356212979888,345.86363688151044L1030.0247306930542,345.86363688151044L1032.421050623347,345.86363688151044L1033.3638650221505,345.86363688151044L1033.5995686218516,345.86363688151044L1035.3673456196086,345.86363688151044L1036.2315921518452,345.86363688151044L1036.7422832845307,345.86363688151044L1038.4707763490042,345.86363688151044L1039.8064300806427,345.86363688151044L1039.9635658137765,345.86363688151044L1040.6313926795958,345.86363688151044L1040.7099605461628,345.86363688151044L1045.1883289404805,345.86363688151044L1045.9740076061503,345.86363688151044L1046.3668469389852,345.86363688151044L1047.3489452710724,345.86363688151044L1049.0381544022623,345.86363688151044L1049.588129468231,345.86363688151044L1051.1594867995707,345.86363688151044L1051.513042199122,345.86363688151044L1053.359387063446,345.86363688151044L1053.51652279658,345.86363688151044L1053.9093621294148,345.86363688151044L1054.341485395533,345.86363688151044L1054.4986211286673,345.86363688151044L1054.6164729285176,345.86363688151044L1054.9307443947855,345.86363688151044L1055.7557069937388,345.86363688151044L1056.0306945267232,345.86363688151044L1056.8556571256765,345.86363688151044L1058.2305947905986,345.86363688151044L1059.0162734562682,345.86363688151044L1059.0948413228352,345.86363688151044L1059.7626681886545,345.86363688151044L1060.3126432546235,345.86363688151044L1062.7482471181997,285.1490759277344L1062.8268149847665,285.1490759277344L1063.3767900507355,345.86363688151044L1065.0659991819255,345.86363688151044L1065.4588385147604,345.86363688151044L1067.1087637126668,345.86363688151044L1067.5016030455017,345.86363688151044L1068.012294178187,345.86363688151044L1070.4478980417632,345.86363688151044L1071.390712440567,345.86363688151044L1076.301204101003,345.86363688151044L1078.1082650320434,345.86363688151044L1079.0117954975635,345.86363688151044L1084.7079658236694,345.86363688151044L1086.1614713551585,345.86363688151044L1086.6328785545604,345.86363688151044L1087.654260819931,345.86363688151044L1088.2828037524669,345.86363688151044L1088.3613716190337,345.86363688151044L1088.6756430853015,345.86363688151044L1088.7542109518686,345.86363688151044L1090.4041361497752,345.86363688151044L1092.643320346934,345.86363688151044L1093.2325793461862,345.86363688151044L1093.2718632794697,345.86363688151044L1095.3539117434946,345.86363688151044L1096.2967261422984,345.86363688151044L1096.6895654751331,345.86363688151044L1097.160972674535,345.86363688151044L1097.2788244743856,345.86363688151044L1099.5572926048278,345.86363688151044L1102.1500322015381,345.86363688151044L1102.5035876010895,345.86363688151044L1103.760673466161,345.86363688151044L1104.1142288657124,345.86363688151044L1104.4285003319803,345.86363688151044L1104.7427717982482,345.86363688151044L1105.4891665306345,345.86363688151044L1105.9605737300365,345.86363688151044L1106.0391415966033,345.86363688151044L1107.139091728541,345.86363688151044L1109.142572325999,345.86363688151044L1110.28180639122,345.86363688151044L1110.360374257787,345.86363688151044L1111.3424725898742,345.86363688151044L1111.8531637225597,345.86363688151044L1111.9317315891265,345.86363688151044L1112.2852869886779,345.86363688151044L1114.7601747855376,345.86363688151044L1116.488667850011,345.86363688151044L1116.6850875164287,345.86363688151044L1119.2385431798552,345.86363688151044L1121.5562952435812,345.86363688151044L1122.7348132420857,345.86363688151044L1123.00980077507,345.86363688151044L1123.2062204414876,345.86363688151044L1123.402640107905,345.86363688151044L1123.7954794407399,345.86363688151044L1124.3454545067086,345.86363688151044" fill="none"></path></g></g></g></g></g></g><g transform="translate(51, 376)" clip-path="url(#clip_1)"><clipPath id="clip_1"><rect width="1178" height="23"></rect></clipPath><g><g><line x1="0" y1="0" x2="0" y2="5" style="visibility: inherit;" fill="rgb(0, 0, 0)" stroke="rgb(204, 204, 204)" stroke-width="1px"></line><line x1="78.56786656697591" y1="0" x2="78.56786656697591" y2="5" style="visibility: inherit;" fill="rgb(0, 0, 0)" stroke="rgb(204, 204, 204)" stroke-width="1px"></line><line x1="157.13573313395182" y1="0" x2="157.13573313395182" y2="5" style="visibility: inherit;" fill="rgb(0, 0, 0)" stroke="rgb(204, 204, 204)" stroke-width="1px"></line><line x1="235.70359970092773" y1="0" x2="235.70359970092773" y2="5" style="visibility: inherit;" fill="rgb(0, 0, 0)" stroke="rgb(204, 204, 204)" stroke-width="1px"></line><line x1="314.27146626790363" y1="0" x2="314.27146626790363" y2="5" style="visibility: inherit;" fill="rgb(0, 0, 0)" stroke="rgb(204, 204, 204)" stroke-width="1px"></line><line x1="392.83933283487954" y1="0" x2="392.83933283487954" y2="5" style="visibility: inherit;" fill="rgb(0, 0, 0)" stroke="rgb(204, 204, 204)" stroke-width="1px"></line><line x1="471.40719940185545" y1="0" x2="471.40719940185545" y2="5" style="visibility: inherit;" fill="rgb(0, 0, 0)" stroke="rgb(204, 204, 204)" stroke-width="1px"></line><line x1="549.9750659688314" y1="0" x2="549.9750659688314" y2="5" style="visibility: inherit;" fill="rgb(0, 0, 0)" stroke="rgb(204, 204, 204)" stroke-width="1px"></line><line x1="628.5429325358073" y1="0" x2="628.5429325358073" y2="5" style="visibility: inherit;" fill="rgb(0, 0, 0)" stroke="rgb(204, 204, 204)" stroke-width="1px"></line><line x1="707.1107991027832" y1="0" x2="707.1107991027832" y2="5" style="visibility: inherit;" fill="rgb(0, 0, 0)" stroke="rgb(204, 204, 204)" stroke-width="1px"></line><line x1="785.6786656697591" y1="0" x2="785.6786656697591" y2="5" style="visibility: inherit;" fill="rgb(0, 0, 0)" stroke="rgb(204, 204, 204)" stroke-width="1px"></line><line x1="864.2465322367349" y1="0" x2="864.2465322367349" y2="5" style="visibility: inherit;" fill="rgb(0, 0, 0)" stroke="rgb(204, 204, 204)" stroke-width="1px"></line><line x1="942.8143988037109" y1="0" x2="942.8143988037109" y2="5" style="visibility: inherit;" fill="rgb(0, 0, 0)" stroke="rgb(204, 204, 204)" stroke-width="1px"></line><line x1="1021.3822653706868" y1="0" x2="1021.3822653706868" y2="5" style="visibility: inherit;" fill="rgb(0, 0, 0)" stroke="rgb(204, 204, 204)" stroke-width="1px"></line><line x1="1099.9501319376627" y1="0" x2="1099.9501319376627" y2="5" style="visibility: inherit;" fill="rgb(0, 0, 0)" stroke="rgb(204, 204, 204)" stroke-width="1px"></line><line x1="1178.5179985046386" y1="0" x2="1178.5179985046386" y2="5" style="visibility: inherit;" fill="rgb(0, 0, 0)" stroke="rgb(204, 204, 204)" stroke-width="1px"></line></g><g transform="translate(0, 8)"><text style="text-anchor: middle; visibility: hidden; font-family: Roboto, sans-serif; font-size: 12px; font-weight: 200;" x="0" y="0" dx="0em" dy="0.95em" fill="rgb(255, 255, 255)" stroke="none" stroke-width="1px">-2k</text><text style="text-anchor: middle; visibility: inherit; font-family: Roboto, sans-serif; font-size: 12px; font-weight: 200;" x="78.56786656697591" y="0" dx="0em" dy="0.95em" fill="rgb(255, 255, 255)" stroke="none" stroke-width="1px">0</text><text style="text-anchor: middle; visibility: inherit; font-family: Roboto, sans-serif; font-size: 12px; font-weight: 200;" x="157.13573313395182" y="0" dx="0em" dy="0.95em" fill="rgb(255, 255, 255)" stroke="none" stroke-width="1px">2k</text><text style="text-anchor: middle; visibility: inherit; font-family: Roboto, sans-serif; font-size: 12px; font-weight: 200;" x="235.70359970092773" y="0" dx="0em" dy="0.95em" fill="rgb(255, 255, 255)" stroke="none" stroke-width="1px">4k</text><text style="text-anchor: middle; visibility: inherit; font-family: Roboto, sans-serif; font-size: 12px; font-weight: 200;" x="314.27146626790363" y="0" dx="0em" dy="0.95em" fill="rgb(255, 255, 255)" stroke="none" stroke-width="1px">6k</text><text style="text-anchor: middle; visibility: inherit; font-family: Roboto, sans-serif; font-size: 12px; font-weight: 200;" x="392.83933283487954" y="0" dx="0em" dy="0.95em" fill="rgb(255, 255, 255)" stroke="none" stroke-width="1px">8k</text><text style="text-anchor: middle; visibility: inherit; font-family: Roboto, sans-serif; font-size: 12px; font-weight: 200;" x="471.40719940185545" y="0" dx="0em" dy="0.95em" fill="rgb(255, 255, 255)" stroke="none" stroke-width="1px">10k</text><text style="text-anchor: middle; visibility: inherit; font-family: Roboto, sans-serif; font-size: 12px; font-weight: 200;" x="549.9750659688314" y="0" dx="0em" dy="0.95em" fill="rgb(255, 255, 255)" stroke="none" stroke-width="1px">12k</text><text style="text-anchor: middle; visibility: inherit; font-family: Roboto, sans-serif; font-size: 12px; font-weight: 200;" x="628.5429325358073" y="0" dx="0em" dy="0.95em" fill="rgb(255, 255, 255)" stroke="none" stroke-width="1px">14k</text><text style="text-anchor: middle; visibility: inherit; font-family: Roboto, sans-serif; font-size: 12px; font-weight: 200;" x="707.1107991027832" y="0" dx="0em" dy="0.95em" fill="rgb(255, 255, 255)" stroke="none" stroke-width="1px">16k</text><text style="text-anchor: middle; visibility: inherit; font-family: Roboto, sans-serif; font-size: 12px; font-weight: 200;" x="785.6786656697591" y="0" dx="0em" dy="0.95em" fill="rgb(255, 255, 255)" stroke="none" stroke-width="1px">18k</text><text style="text-anchor: middle; visibility: inherit; font-family: Roboto, sans-serif; font-size: 12px; font-weight: 200;" x="864.2465322367349" y="0" dx="0em" dy="0.95em" fill="rgb(255, 255, 255)" stroke="none" stroke-width="1px">20k</text><text style="text-anchor: middle; visibility: inherit; font-family: Roboto, sans-serif; font-size: 12px; font-weight: 200;" x="942.8143988037109" y="0" dx="0em" dy="0.95em" fill="rgb(255, 255, 255)" stroke="none" stroke-width="1px">22k</text><text style="text-anchor: middle; visibility: inherit; font-family: Roboto, sans-serif; font-size: 12px; font-weight: 200;" x="1021.3822653706868" y="0" dx="0em" dy="0.95em" fill="rgb(255, 255, 255)" stroke="none" stroke-width="1px">24k</text><text style="text-anchor: middle; visibility: inherit; font-family: Roboto, sans-serif; font-size: 12px; font-weight: 200;" x="1099.9501319376627" y="0" dx="0em" dy="0.95em" fill="rgb(255, 255, 255)" stroke="none" stroke-width="1px">26k</text><text style="text-anchor: middle; visibility: hidden; font-family: Roboto, sans-serif; font-size: 12px; font-weight: 200;" x="1178.5179985046386" y="0" dx="0em" dy="0.95em" fill="rgb(255, 255, 255)" stroke="none" stroke-width="1px">28k</text></g><line x1="0" y1="0" x2="1178.5179985046386" y2="0" fill="rgb(0, 0, 0)" stroke="rgb(204, 204, 204)" stroke-width="1px"></line></g></g></g></g></svg>